<?xml version="1.0" encoding="UTF-8" standalone="no"?>
<svg
   version="1.1"
   width="297.002200mm"
   height="210.007200mm"
   viewBox="0.000000 0.000000 297.002200 210.007200"
   id="svg110"
   sodipodi:docname="fla-xiao-F_Cu.svg"
   inkscape:version="1.4.2 (f4327f4, 2025-05-13)"
   xmlns:inkscape="http://www.inkscape.org/namespaces/inkscape"
   xmlns:sodipodi="http://sodipodi.sourceforge.net/DTD/sodipodi-0.dtd"
   xmlns="http://www.w3.org/2000/svg"
   xmlns:svg="http://www.w3.org/2000/svg">
  <defs
     id="defs110" />
  <sodipodi:namedview
     id="namedview110"
     pagecolor="#ffffff"
     bordercolor="#666666"
     borderopacity="1.0"
     inkscape:showpageshadow="2"
     inkscape:pageopacity="0.0"
     inkscape:pagecheckerboard="0"
     inkscape:deskcolor="#d1d1d1"
     inkscape:document-units="mm"
     inkscape:zoom="4.6388687"
     inkscape:cx="201.77333"
     inkscape:cy="161.354"
     inkscape:window-width="3840"
     inkscape:window-height="2054"
     inkscape:window-x="-11"
     inkscape:window-y="-11"
     inkscape:window-maximized="1"
     inkscape:current-layer="svg110" />
  <title
     id="title1">SVG Image created as fla-xiao-F_Cu.svg date 2025/10/16 15:49:47 </title>
  <desc
     id="desc1">Image generated by PCBNEW </desc>
  <g
     id="rect1"
     style="opacity:1"
     transform="matrix(0.61205268,0,0,0.72343727,16.101961,10.202418)">
    <path
       style="baseline-shift:baseline;display:inline;overflow:visible;vector-effect:none;stroke-linecap:round;stroke-linejoin:round;enable-background:accumulate;stop-color:#000000;stop-opacity:1"
       d="M 6.2320452,5.3280659 H 81.777684 V 52.346315 H 6.2320452 Z"
       id="path111" />
    <path
       style="baseline-shift:baseline;display:inline;overflow:visible;vector-effect:none;stroke-linecap:round;stroke-linejoin:round;enable-background:accumulate;stop-color:#000000;stop-opacity:1"
       d="m 6.2324219,5.3183594 a 0.01060106,0.01060106 0 0 0 -0.011719,0.00977 V 52.345707 a 0.01060106,0.01060106 0 0 0 0.011719,0.01172 H 81.777344 a 0.01060106,0.01060106 0 0 0 0.01172,-0.01172 V 5.328125 a 0.01060106,0.01060106 0 0 0 -0.01172,-0.00977 z m 0.00977,0.019531 H 81.767578 V 52.335937 H 6.2421875 Z"
       id="path112" />
  </g>
  <path
     id="path1"
     style="fill:#ffffff;fill-opacity:1;fill-rule:evenodd;stroke:none;stroke-width:0.0212;stroke-linecap:round;stroke-linejoin:round;stroke-opacity:1"
     d="M 26.168945 15.946313 L 26.168945 17.646468 L 28.669051 17.646468 L 28.669051 17.095597 L 36.718689 17.095597 L 39.681816 20.058724 A 0.30000001 0.30000001 0 0 0 39.684916 20.061825 L 42.628923 23.005831 L 42.628923 24.047111 L 42.628923 39.546423 L 42.079085 39.546423 L 42.079085 42.046529 L 43.778723 42.046529 L 43.778723 39.546423 L 43.228369 39.546423 L 43.228369 24.047111 A 0.30000001 0.30000001 0 0 0 43.228369 24.045561 L 43.228369 22.881807 A 0.30000001 0.30000001 0 0 0 43.225785 22.842533 A 0.30000001 0.30000001 0 0 0 43.218034 22.804293 A 0.30000001 0.30000001 0 0 0 43.218034 22.803776 A 0.30000001 0.30000001 0 0 0 43.217517 22.802226 A 0.30000001 0.30000001 0 0 0 43.205632 22.767086 A 0.30000001 0.30000001 0 0 0 43.204598 22.764502 A 0.30000001 0.30000001 0 0 0 43.140519 22.669934 L 40.617159 20.146574 L 50.323543 20.146574 L 50.323543 20.346562 L 52.323938 20.346562 L 52.323938 19.346623 L 50.323543 19.346623 L 50.323543 19.547127 L 40.017712 19.547127 L 37.059753 16.587101 A 0.30000001 0.30000001 0 0 0 37.029264 16.559713 A 0.30000001 0.30000001 0 0 0 36.961051 16.519405 A 0.30000001 0.30000001 0 0 0 36.956401 16.517855 A 0.30000001 0.30000001 0 0 0 36.923328 16.506486 A 0.30000001 0.30000001 0 0 0 36.922811 16.506486 A 0.30000001 0.30000001 0 0 0 36.822559 16.496151 L 28.669051 16.496151 L 28.669051 15.946313 L 26.168945 15.946313 z M 56.900403 16.196944 L 55.891162 17.206185 L 56.930375 18.245398 L 57.970105 19.284611 L 59.009318 20.324341 L 59.454252 20.769275 L 60.493465 21.808488 L 61.502706 22.817729 L 62.511947 21.808488 L 56.900403 16.196944 z M 56.900403 16.314766 L 57.791305 17.206185 L 57.642993 17.354496 L 57.048197 16.759701 L 56.898336 16.909562 L 57.34482 17.356563 L 57.196509 17.504358 L 56.750024 17.057874 L 56.305607 17.502291 L 56.008984 17.206185 L 56.900403 16.314766 z M 57.939616 17.354496 L 58.235722 17.650602 L 57.493132 18.393709 L 58.087927 18.988505 L 57.939616 19.136816 L 57.048197 18.245398 L 57.939616 17.354496 z M 26.168945 18.48621 L 26.168945 20.186365 L 28.669051 20.186365 L 28.669051 18.48621 L 26.168945 18.48621 z M 59.126107 18.540987 L 59.720903 19.135783 L 59.572591 19.283577 L 59.12714 18.838127 L 58.976762 18.988505 L 59.423246 19.434473 L 59.572074 19.285645 L 59.720903 19.433956 L 58.978829 20.176029 L 58.830518 20.027201 L 59.274935 19.582784 L 58.828451 19.136816 L 58.384033 19.581234 L 58.087927 19.284611 L 58.829484 18.543054 L 58.976762 18.689815 L 59.126107 18.540987 z M 31.78359 19.346623 L 31.78359 20.346562 L 31.860588 20.346562 L 28.640629 23.56652 L 26.168945 23.56652 L 26.168945 25.266158 L 28.669051 25.266158 L 28.669051 24.385592 L 32.708081 20.346562 L 33.783984 20.346562 L 33.783984 19.346623 L 31.78359 19.346623 z M 60.463493 19.877856 L 61.354395 20.769275 L 61.206083 20.917586 L 60.90791 20.618896 L 60.313114 21.213692 L 60.611287 21.512382 L 60.463493 21.660177 L 59.572074 20.769275 L 59.720386 20.620964 L 60.016492 20.917586 L 60.611287 20.322791 L 60.315181 20.026168 L 60.463493 19.877856 z M 59.423246 20.027718 L 59.719869 20.324341 L 59.423246 20.620447 L 59.12714 20.324341 L 59.423246 20.027718 z M 26.168945 21.026107 L 26.168945 21.575944 L 25.340055 21.575944 A 0.30000001 0.30000001 0 0 0 25.260474 21.586796 A 0.30000001 0.30000001 0 0 0 25.2243 21.599198 A 0.30000001 0.30000001 0 0 0 25.20673 21.607983 A 0.30000001 0.30000001 0 0 0 25.18761 21.617285 A 0.30000001 0.30000001 0 0 0 25.186576 21.617802 A 0.30000001 0.30000001 0 0 0 25.156604 21.638472 A 0.30000001 0.30000001 0 0 0 25.1349 21.657593 A 0.30000001 0.30000001 0 0 0 25.127148 21.664311 A 0.30000001 0.30000001 0 0 0 25.124048 21.667411 L 23.70708 23.083862 A 0.30000001 0.30000001 0 0 0 23.692611 23.100399 A 0.30000001 0.30000001 0 0 0 23.682792 23.111768 A 0.30000001 0.30000001 0 0 0 23.67194 23.127271 A 0.30000001 0.30000001 0 0 0 23.660571 23.143807 A 0.30000001 0.30000001 0 0 0 23.659538 23.145874 A 0.30000001 0.30000001 0 0 0 23.642485 23.179464 A 0.30000001 0.30000001 0 0 0 23.641968 23.181014 A 0.30000001 0.30000001 0 0 0 23.629565 23.217704 A 0.30000001 0.30000001 0 0 0 23.629565 23.218221 A 0.30000001 0.30000001 0 0 0 23.61923 23.296252 A 0.30000001 0.30000001 0 0 0 23.61923 23.296769 L 23.61923 43.79681 A 0.30000001 0.30000001 0 0 0 23.621814 43.83505 A 0.30000001 0.30000001 0 0 0 23.628015 43.866056 A 0.30000001 0.30000001 0 0 0 23.629565 43.873808 A 0.30000001 0.30000001 0 0 0 23.6368 43.893962 A 0.30000001 0.30000001 0 0 0 23.642485 43.911532 A 0.30000001 0.30000001 0 0 0 23.643001 43.913082 A 0.30000001 0.30000001 0 0 0 23.659538 43.945638 A 0.30000001 0.30000001 0 0 0 23.672457 43.965275 A 0.30000001 0.30000001 0 0 0 23.683309 43.980778 A 0.30000001 0.30000001 0 0 0 23.683826 43.981295 A 0.30000001 0.30000001 0 0 0 23.70708 44.00765 A 0.30000001 0.30000001 0 0 0 23.713281 44.013851 L 25.201046 45.501615 A 0.30000001 0.30000001 0 0 0 25.20363 45.504716 L 25.207247 45.507817 A 0.30000001 0.30000001 0 0 0 25.302848 45.571895 A 0.30000001 0.30000001 0 0 0 25.325586 45.580164 A 0.30000001 0.30000001 0 0 0 25.340572 45.585331 A 0.30000001 0.30000001 0 0 0 25.379846 45.593083 A 0.30000001 0.30000001 0 0 0 25.419637 45.595667 A 0.30000001 0.30000001 0 0 0 25.420154 45.595667 L 32.449182 45.595667 A 0.30000001 0.30000001 0 0 0 32.487423 45.593083 A 0.30000001 0.30000001 0 0 0 32.525663 45.585331 A 0.30000001 0.30000001 0 0 0 32.52618 45.585331 A 0.30000001 0.30000001 0 0 0 32.52773 45.584814 A 0.30000001 0.30000001 0 0 0 32.563904 45.572412 A 0.30000001 0.30000001 0 0 0 32.565454 45.571895 A 0.30000001 0.30000001 0 0 0 32.63315 45.531588 A 0.30000001 0.30000001 0 0 0 32.633667 45.531071 A 0.30000001 0.30000001 0 0 0 32.663123 45.504716 L 35.309473 42.860433 L 36.956917 44.507878 A 0.30000001 0.30000001 0 0 0 36.973454 44.522347 A 0.30000001 0.30000001 0 0 0 36.984823 44.532166 A 0.30000001 0.30000001 0 0 0 36.986373 44.533716 A 0.30000001 0.30000001 0 0 0 37.016862 44.55387 A 0.30000001 0.30000001 0 0 0 37.041667 44.566272 A 0.30000001 0.30000001 0 0 0 37.052519 44.571956 A 0.30000001 0.30000001 0 0 0 37.054069 44.572473 A 0.30000001 0.30000001 0 0 0 37.090759 44.585392 A 0.30000001 0.30000001 0 0 0 37.091276 44.585392 A 0.30000001 0.30000001 0 0 0 37.130033 44.593144 A 0.30000001 0.30000001 0 0 0 37.169824 44.595728 L 53.419995 44.595728 A 0.30000001 0.30000001 0 0 0 53.496476 44.585392 A 0.30000001 0.30000001 0 0 0 53.496993 44.585392 A 0.30000001 0.30000001 0 0 0 53.498543 44.584875 A 0.30000001 0.30000001 0 0 0 53.603963 44.531649 A 0.30000001 0.30000001 0 0 0 53.60448 44.531132 A 0.30000001 0.30000001 0 0 0 53.633936 44.504777 L 55.092244 43.046468 L 56.254447 43.046468 A 0.30000001 0.30000001 0 0 0 56.419812 43.095561 L 59.420146 43.095561 L 63.419902 43.095561 A 0.30000001 0.30000001 0 0 0 63.583716 43.046468 L 63.668982 43.046468 L 63.668982 42.961202 A 0.30000001 0.30000001 0 0 0 63.718591 42.796871 A 0.30000001 0.30000001 0 0 0 63.668982 42.630473 L 63.668982 41.546301 L 61.168876 41.546301 L 61.168876 42.496114 L 59.718835 42.496114 L 59.718835 24.296708 A 0.30000001 0.30000001 0 0 0 59.7085 24.21816 A 0.30000001 0.30000001 0 0 0 59.7085 24.217643 A 0.30000001 0.30000001 0 0 0 59.677494 24.144779 A 0.30000001 0.30000001 0 0 0 59.676978 24.143746 A 0.30000001 0.30000001 0 0 0 59.656824 24.113257 A 0.30000001 0.30000001 0 0 0 59.654757 24.110673 A 0.30000001 0.30000001 0 0 0 59.627885 24.080701 L 58.133919 22.587252 A 0.30000001 0.30000001 0 0 0 58.068807 22.536609 A 0.30000001 0.30000001 0 0 0 58.036251 22.520072 A 0.30000001 0.30000001 0 0 0 58.017131 22.513354 A 0.30000001 0.30000001 0 0 0 57.998527 22.507153 A 0.30000001 0.30000001 0 0 0 57.99646 22.506637 A 0.30000001 0.30000001 0 0 0 57.958219 22.498885 A 0.30000001 0.30000001 0 0 0 57.919979 22.496301 L 52.919767 22.496301 A 0.30000001 0.30000001 0 0 0 52.91925 22.496301 A 0.30000001 0.30000001 0 0 0 52.918734 22.496301 A 0.30000001 0.30000001 0 0 0 52.879976 22.498885 A 0.30000001 0.30000001 0 0 0 52.840702 22.506637 A 0.30000001 0.30000001 0 0 0 52.804529 22.519039 A 0.30000001 0.30000001 0 0 0 52.750269 22.549011 A 0.30000001 0.30000001 0 0 0 52.734766 22.559863 A 0.30000001 0.30000001 0 0 0 52.723397 22.569682 A 0.30000001 0.30000001 0 0 0 52.70686 22.584151 A 0.30000001 0.30000001 0 0 0 52.70376 22.587252 L 51.111092 24.179919 A 0.30000001 0.30000001 0 0 0 51.096106 24.197489 A 0.30000001 0.30000001 0 0 0 51.087321 24.207308 A 0.30000001 0.30000001 0 0 0 51.08112 24.216093 A 0.30000001 0.30000001 0 0 0 51.04753 24.274487 A 0.30000001 0.30000001 0 0 0 51.04443 24.283272 A 0.30000001 0.30000001 0 0 0 51.023242 24.390759 L 51.023242 24.426416 L 50.323543 24.426416 L 50.323543 25.426872 L 52.323938 25.426872 L 52.323938 24.426416 L 51.712606 24.426416 L 53.042757 23.095748 L 57.794922 23.095748 L 59.119389 24.420215 L 59.119389 42.496114 L 56.668892 42.496114 L 56.668892 41.546301 L 54.168787 41.546301 L 54.168787 43.046468 L 54.244234 43.046468 L 53.294938 43.996281 L 37.292814 43.996281 L 35.609196 42.312663 L 35.609196 42.046529 L 36.159033 42.046529 L 36.159033 39.546423 L 34.458879 39.546423 L 34.458879 42.046529 L 35.009749 42.046529 L 35.009749 42.312663 L 32.324125 44.99622 L 25.543144 44.99622 L 24.218677 43.671753 L 24.218677 23.419759 L 25.463045 22.175907 L 26.168945 22.175907 L 26.168945 22.726261 L 28.669051 22.726261 L 28.669051 21.026107 L 26.168945 21.026107 z M 61.353361 21.066414 L 61.502706 21.215759 L 61.652051 21.066414 L 62.394124 21.808488 L 62.245813 21.956799 L 61.651017 21.362004 L 61.500639 21.512382 L 62.095435 22.107178 L 61.651017 22.551595 L 61.501672 22.40225 L 61.353361 22.550562 L 60.611287 21.808488 L 60.759599 21.660177 L 61.354395 22.254972 L 61.651017 21.958866 L 61.056222 21.364071 L 61.353361 21.066414 z M 35.083647 21.886519 L 35.083647 22.08599 L 32.409908 22.08599 A 0.30000001 0.30000001 0 0 0 32.274516 22.108211 A 0.30000001 0.30000001 0 0 0 32.270382 22.109762 A 0.30000001 0.30000001 0 0 0 32.203202 22.149552 A 0.30000001 0.30000001 0 0 0 32.186666 22.164539 A 0.30000001 0.30000001 0 0 0 32.175814 22.17384 L 28.244788 26.106417 L 26.168945 26.106417 L 26.168945 27.806571 L 28.669051 27.806571 L 28.669051 26.53068 L 32.513778 22.687504 L 35.083647 22.687504 L 35.083647 22.886458 L 37.083525 22.886458 L 37.083525 21.886519 L 35.083647 21.886519 z M 47.024003 21.886519 L 47.024003 22.886458 L 49.023881 22.886458 L 49.023881 21.886519 L 47.024003 21.886519 z M 25.601021 22.832715 L 25.576733 22.835299 L 25.552962 22.833748 L 25.542627 22.839433 L 25.531258 22.840466 L 25.512655 22.855452 L 25.491467 22.867338 L 25.127148 23.231657 L 24.763863 23.594942 L 24.747327 23.615613 L 24.72769 23.682792 L 24.72769 35.47432 L 24.727173 35.47432 L 24.727173 37.248372 L 24.727173 39.343852 L 24.727173 41.247611 L 24.727173 43.409753 L 24.730273 43.436108 L 24.763863 43.497603 L 25.717293 44.45155 L 25.737964 44.468087 L 25.805143 44.487724 L 32.062642 44.487724 L 32.088997 44.484623 L 32.149976 44.45155 L 34.06097 42.540556 L 34.082157 42.512651 L 34.096627 42.443921 L 34.072339 42.378809 L 34.007743 42.292509 L 34.006193 42.288375 L 33.956584 42.155566 L 33.950382 42.095105 L 33.950382 39.497331 L 33.956584 39.436869 L 34.007743 39.299927 L 34.095593 39.183138 L 34.212382 39.095288 L 34.349841 39.044128 L 34.410303 39.037927 L 36.207609 39.037927 L 36.26807 39.044128 L 36.403979 39.094771 L 36.405013 39.095288 L 36.485111 39.155233 L 36.504749 39.169702 L 36.519218 39.179521 L 36.587431 39.194507 L 36.65306 39.169702 L 36.752795 39.095288 L 36.889738 39.044128 L 36.929529 39.039994 L 36.967769 39.029659 L 37.020479 38.983667 L 37.040116 38.916488 L 37.040116 36.887671 L 37.037533 36.861316 L 37.003943 36.799821 L 35.940959 35.736837 L 35.852592 35.604028 L 35.804016 35.487756 L 35.791614 35.457267 L 35.760091 35.300688 L 35.760091 33.679081 L 35.749239 33.627405 L 35.703247 33.574695 L 35.636584 33.555058 L 35.035071 33.555058 L 35.001481 33.55144 L 34.974609 33.548857 L 34.83715 33.497697 L 34.720361 33.409847 L 34.632511 33.293058 L 34.621659 33.263086 L 34.581352 33.155599 L 34.575151 33.095138 L 34.575151 31.998047 L 34.581352 31.937585 L 34.632511 31.800643 L 34.720361 31.683337 L 34.83715 31.595487 L 34.974609 31.544845 L 35.035071 31.538127 L 37.1321 31.538127 L 37.192562 31.544845 L 37.330021 31.595487 L 37.44681 31.683337 L 37.53466 31.800643 L 37.585819 31.937585 L 37.586336 31.945337 L 37.592021 31.998047 L 37.592021 33.095138 L 37.589437 33.122526 L 37.585819 33.155599 L 37.55068 33.24965 L 37.53466 33.293058 L 37.44681 33.409847 L 37.427173 33.424833 L 37.397201 33.456873 L 37.377563 33.524052 L 37.377563 34.835083 L 37.380147 34.861438 L 37.413737 34.922933 L 38.359932 35.869128 L 38.476721 35.985917 L 38.525814 36.059298 L 38.565088 36.118209 L 38.626066 36.265487 L 38.630717 36.287191 L 38.657589 36.421549 L 38.657589 38.916488 L 38.66379 38.955762 L 38.703581 39.013123 L 38.768176 39.039994 L 38.807967 39.044128 L 38.943876 39.094771 L 38.94491 39.095288 L 39.025525 39.155233 L 39.044645 39.169702 L 39.059631 39.179521 L 39.127844 39.194507 L 39.192957 39.169702 L 39.292692 39.095288 L 39.429635 39.044128 L 39.469425 39.039994 L 39.507666 39.029659 L 39.560376 38.983667 L 39.58053 38.916488 L 39.58053 32.152559 L 39.577429 32.126204 L 39.54384 32.064709 L 38.330477 30.851347 L 38.309806 30.83481 L 38.243144 30.815173 L 34.250106 30.815173 L 34.206698 30.822925 L 34.150887 30.864783 L 34.146753 30.86995 L 34.029964 30.957284 L 33.893022 31.008443 L 33.859432 31.012061 L 33.832043 31.015161 L 31.735014 31.015161 L 31.701424 31.011544 L 31.674552 31.008443 L 31.53761 30.957284 L 31.420304 30.86995 L 31.332971 30.752645 L 31.281812 30.615702 L 31.275094 30.555241 L 31.275094 30.022974 L 31.274577 30.014189 L 31.250289 29.94856 L 31.194478 29.906702 L 31.124715 29.901534 L 31.06322 29.935124 L 29.213721 31.78514 L 29.197184 31.805294 L 29.177547 31.872473 L 29.177547 32.934941 L 29.174447 32.961812 L 29.170829 32.995402 L 29.11967 33.132345 L 29.040088 33.239315 L 29.030269 33.253784 L 29.015283 33.321997 L 29.040088 33.387626 L 29.112435 33.484261 L 29.162561 33.619137 L 29.168762 33.678564 L 29.168762 34.32607 L 28.669051 34.32607 L 28.669051 33.726107 L 26.168945 33.726107 L 26.168945 34.32607 L 25.668717 34.32607 L 25.668717 33.678564 L 25.675435 33.61862 L 25.725562 33.484261 L 25.797909 33.387626 L 25.80721 33.37264 L 25.822196 33.304427 L 25.797909 33.238798 L 25.71781 33.132345 L 25.66665 32.995402 L 25.660449 32.934941 L 25.660449 31.137634 L 25.66665 31.077173 L 25.71781 30.94023 L 25.792224 30.840495 L 25.802043 30.825509 L 25.817029 30.757296 L 25.792224 30.691667 L 25.71781 30.592448 L 25.66665 30.455505 L 25.660449 30.395044 L 25.660449 28.597738 L 25.66665 28.536759 L 25.71781 28.399817 L 25.792224 28.300598 L 25.802043 28.285612 L 25.817029 28.217399 L 25.792741 28.15177 L 25.71781 28.052551 L 25.667167 27.915609 L 25.660449 27.854631 L 25.660449 26.057324 L 25.667167 25.996863 L 25.71781 25.85992 L 25.792741 25.760701 L 25.802043 25.745715 L 25.817029 25.677502 L 25.792741 25.611873 L 25.71781 25.512655 L 25.667167 25.375195 L 25.660449 25.314734 L 25.660449 23.517428 L 25.667167 23.456966 L 25.71781 23.320024 L 25.792741 23.220288 L 25.795325 23.216671 L 25.797392 23.21047 L 25.802043 23.205819 L 25.808244 23.177913 L 25.817029 23.150525 L 25.815479 23.143807 L 25.817029 23.137606 L 25.806694 23.110734 L 25.799459 23.082829 L 25.796358 23.077144 L 25.71781 22.972758 L 25.691455 22.900928 L 25.685771 22.891626 L 25.681637 22.886458 L 25.678536 22.880774 L 25.674402 22.877673 L 25.66355 22.863721 L 25.641846 22.853385 L 25.622725 22.838916 L 25.611357 22.837882 L 25.601021 22.832715 z M 31.78359 24.426416 L 31.78359 25.426872 L 31.860071 25.426872 L 28.640629 28.646313 L 26.168945 28.646313 L 26.168945 30.346468 L 28.669051 30.346468 L 28.669051 29.465385 L 32.707564 25.426872 L 33.783984 25.426872 L 33.783984 24.426416 L 31.78359 24.426416 z M 55.290682 25.284245 L 55.290682 25.859403 L 53.984819 27.165784 L 49.023881 27.165784 L 49.023881 26.966829 L 47.024003 26.966829 L 47.024003 27.966768 L 49.023881 27.966768 L 49.023881 27.767814 L 54.109359 27.767814 A 0.30000001 0.30000001 0 0 0 54.22408 27.744043 A 0.30000001 0.30000001 0 0 0 54.225631 27.743526 A 0.30000001 0.30000001 0 0 0 54.3264 27.673246 L 55.714429 26.284184 L 58.440877 26.284184 L 58.440877 25.284245 L 55.290682 25.284245 z M 60.34102 25.284245 L 60.34102 26.284184 L 63.490698 26.284184 L 63.490698 25.284245 L 60.34102 25.284245 z M 35.083647 26.966829 L 35.083647 27.165784 L 32.409908 27.165784 A 0.30000001 0.30000001 0 0 0 32.348413 27.168368 A 0.30000001 0.30000001 0 0 0 32.346346 27.168884 A 0.30000001 0.30000001 0 0 0 32.274516 27.188521 A 0.30000001 0.30000001 0 0 0 32.270382 27.190072 A 0.30000001 0.30000001 0 0 0 32.203202 27.229346 A 0.30000001 0.30000001 0 0 0 32.202169 27.230379 A 0.30000001 0.30000001 0 0 0 32.175814 27.25415 L 28.245304 31.18621 L 26.168945 31.18621 L 26.168945 32.886365 L 28.669051 32.886365 L 28.669051 31.610474 L 32.513261 27.767814 L 35.083647 27.767814 L 35.083647 27.966768 L 37.083525 27.966768 L 37.083525 26.966829 L 35.083647 26.966829 z M 55.290682 27.824141 L 55.290682 28.041182 A 0.30000001 0.30000001 0 0 0 55.2111 28.084591 A 0.30000001 0.30000001 0 0 0 55.203349 28.090275 A 0.30000001 0.30000001 0 0 0 55.190946 28.101644 A 0.30000001 0.30000001 0 0 0 55.179578 28.111462 A 0.30000001 0.30000001 0 0 0 55.176477 28.114563 L 53.795166 29.495874 L 51.533289 29.495874 A 0.30000001 0.30000001 0 0 0 51.455257 29.506726 L 50.323543 29.506726 L 50.323543 30.506665 L 52.323938 30.506665 L 52.323938 30.095837 L 53.919706 30.095837 A 0.30000001 0.30000001 0 0 0 53.957947 30.092737 A 0.30000001 0.30000001 0 0 0 53.986369 30.087569 A 0.30000001 0.30000001 0 0 0 53.996704 30.085502 A 0.30000001 0.30000001 0 0 0 53.997221 30.085502 A 0.30000001 0.30000001 0 0 0 53.998771 30.084985 A 0.30000001 0.30000001 0 0 0 54.034428 30.072066 A 0.30000001 0.30000001 0 0 0 54.035978 30.071549 A 0.30000001 0.30000001 0 0 0 54.087138 30.043127 A 0.30000001 0.30000001 0 0 0 54.104708 30.031242 A 0.30000001 0.30000001 0 0 0 54.134163 30.004887 L 55.316003 28.82408 L 58.440877 28.82408 L 58.440877 27.824141 L 55.290682 27.824141 z M 60.34102 27.824141 L 60.34102 28.82408 L 63.490698 28.82408 L 63.490698 27.824141 L 60.34102 27.824141 z M 31.78359 29.506726 L 31.78359 30.506665 L 33.783984 30.506665 L 33.783984 30.306677 L 38.50566 30.306677 L 40.090059 31.89056 L 40.090059 39.546423 L 39.539189 39.546423 L 39.539189 42.046529 L 41.238826 42.046529 L 41.238826 39.546423 L 40.689506 39.546423 L 40.689506 31.765503 A 0.30000001 0.30000001 0 0 0 40.686405 31.727262 A 0.30000001 0.30000001 0 0 0 40.686405 31.725712 A 0.30000001 0.30000001 0 0 0 40.679171 31.689022 A 0.30000001 0.30000001 0 0 0 40.679171 31.688505 A 0.30000001 0.30000001 0 0 0 40.678654 31.686955 A 0.30000001 0.30000001 0 0 0 40.648165 31.615125 A 0.30000001 0.30000001 0 0 0 40.647648 31.614091 A 0.30000001 0.30000001 0 0 0 40.641964 31.605823 A 0.30000001 0.30000001 0 0 0 40.62491 31.581018 A 0.30000001 0.30000001 0 0 0 40.598556 31.551562 L 38.845174 29.798181 A 0.30000001 0.30000001 0 0 0 38.744405 29.729968 A 0.30000001 0.30000001 0 0 0 38.708232 29.717566 A 0.30000001 0.30000001 0 0 0 38.707198 29.717566 A 0.30000001 0.30000001 0 0 0 38.668958 29.709814 A 0.30000001 0.30000001 0 0 0 38.629167 29.707231 A 0.30000001 0.30000001 0 0 0 38.62865 29.707231 L 33.783984 29.707231 L 33.783984 29.506726 L 31.78359 29.506726 z M 55.290682 30.364038 L 55.290682 31.364494 L 55.941288 31.364494 L 55.058655 32.246094 L 49.023881 32.246094 L 49.023881 32.046623 L 47.024003 32.046623 L 47.024003 33.046562 L 49.023881 33.046562 L 49.023881 32.84554 L 55.143404 32.84554 A 0.30000001 0.30000001 0 0 0 55.396619 32.759757 L 56.790332 31.364494 L 58.440877 31.364494 L 58.440877 30.364038 L 55.290682 30.364038 z M 60.34102 30.364038 L 60.34102 31.364494 L 63.490698 31.364494 L 63.490698 30.364038 L 60.34102 30.364038 z M 35.083647 32.046623 L 35.083647 33.046562 L 36.159033 33.046562 L 36.269621 33.156632 L 36.269621 35.220589 A 0.30000001 0.30000001 0 0 0 36.269621 35.221106 A 0.30000001 0.30000001 0 0 0 36.269621 35.221623 A 0.30000001 0.30000001 0 0 0 36.279956 35.299137 A 0.30000001 0.30000001 0 0 0 36.279956 35.300171 A 0.30000001 0.30000001 0 0 0 36.292358 35.336344 A 0.30000001 0.30000001 0 0 0 36.292875 35.337895 A 0.30000001 0.30000001 0 0 0 36.309928 35.371484 A 0.30000001 0.30000001 0 0 0 36.350753 35.425745 A 0.30000001 0.30000001 0 0 0 36.357471 35.433496 A 0.30000001 0.30000001 0 0 0 36.360571 35.436597 L 37.548612 36.625155 L 37.548612 39.546423 L 36.998775 39.546423 L 36.998775 42.046529 L 38.69893 42.046529 L 38.69893 39.546423 L 38.148576 39.546423 L 38.148576 36.502165 A 0.30000001 0.30000001 0 0 0 38.138241 36.423617 A 0.30000001 0.30000001 0 0 0 38.137724 36.422583 A 0.30000001 0.30000001 0 0 0 38.126355 36.38951 A 0.30000001 0.30000001 0 0 0 38.124805 36.384859 A 0.30000001 0.30000001 0 0 0 38.107235 36.349719 A 0.30000001 0.30000001 0 0 0 38.106718 36.348686 A 0.30000001 0.30000001 0 0 0 38.101034 36.340417 A 0.30000001 0.30000001 0 0 0 38.08398 36.315613 A 0.30000001 0.30000001 0 0 0 38.060726 36.289258 L 38.057625 36.28564 A 0.30000001 0.30000001 0 0 0 38.054525 36.283057 L 36.869067 35.097599 L 36.869067 33.046562 L 37.083525 33.046562 L 37.083525 32.046623 L 35.083647 32.046623 z M 56.418778 33.946248 L 56.418778 35.646403 L 57.118994 35.646403 L 57.118994 36.171952 L 55.744401 37.546545 L 55.093278 37.546545 L 52.422123 34.874874 A 0.30000001 0.30000001 0 0 0 52.407654 34.862472 A 0.30000001 0.30000001 0 0 0 52.359078 34.827332 A 0.30000001 0.30000001 0 0 0 52.323938 34.809762 L 52.323938 34.586519 L 50.323543 34.586519 L 50.323543 35.586458 L 51.457324 35.586458 A 0.30000001 0.30000001 0 0 0 51.609253 35.586458 L 52.285697 35.586458 L 54.245785 37.546545 L 54.168787 37.546545 L 54.168787 39.046195 L 56.668892 39.046195 L 56.668892 37.546545 L 56.591895 37.546545 L 57.631108 36.507849 A 0.30000001 0.30000001 0 0 0 57.644027 36.492863 A 0.30000001 0.30000001 0 0 0 57.656429 36.478394 A 0.30000001 0.30000001 0 0 0 57.676583 36.448938 A 0.30000001 0.30000001 0 0 0 57.676583 36.448421 A 0.30000001 0.30000001 0 0 0 57.69467 36.413281 A 0.30000001 0.30000001 0 0 0 57.695703 36.410697 A 0.30000001 0.30000001 0 0 0 57.697253 36.40553 A 0.30000001 0.30000001 0 0 0 57.718958 36.297009 L 57.718958 35.646403 L 58.419173 35.646403 L 58.419173 33.946248 L 56.418778 33.946248 z M 60.419051 33.946248 L 60.419051 35.646403 L 62.418929 35.646403 L 62.418929 33.946248 L 60.419051 33.946248 z M 31.735014 34.078023 L 33.832043 34.078023 L 33.892505 34.084741 L 34.029964 34.135901 L 34.146753 34.223234 L 34.234603 34.34054 L 34.285763 34.477482 L 34.288863 34.506938 L 34.291964 34.537944 L 34.291964 35.635551 L 34.28938 35.662423 L 34.285763 35.696012 L 34.234603 35.832955 L 34.146753 35.949744 L 34.029964 36.037594 L 33.892505 36.088753 L 33.859432 36.092371 L 33.832043 36.094954 L 33.314762 36.094954 L 33.288407 36.098055 L 33.226912 36.131645 L 31.313334 38.044706 L 31.296798 38.065377 L 31.277161 38.132556 L 31.277161 39.344885 L 31.274577 39.371757 L 31.270959 39.405347 L 31.2198 39.542289 L 31.13195 39.659595 L 31.015161 39.747445 L 30.900439 39.789819 L 30.883386 39.796537 L 30.878219 39.798088 L 30.844629 39.801705 L 30.81724 39.804806 L 29.019934 39.804806 L 28.986861 39.801188 L 28.959473 39.798088 L 28.954305 39.796537 L 28.937252 39.789819 L 28.82253 39.747445 L 28.705741 39.659595 L 28.617891 39.542289 L 28.616341 39.538155 L 28.566732 39.405347 L 28.560531 39.344885 L 28.560531 37.247856 L 28.566732 37.187394 L 28.617891 37.049935 L 28.705741 36.933146 L 28.82253 36.845296 L 28.959473 36.794137 L 29.019934 36.787935 L 30.23278 36.787935 L 30.259135 36.784835 L 30.320113 36.751762 L 31.250806 35.821069 L 31.284395 35.759574 L 31.280261 35.704281 L 31.283362 35.703247 L 31.281295 35.696012 L 31.275094 35.635551 L 31.275094 34.537944 L 31.281295 34.477482 L 31.332454 34.34054 L 31.420304 34.223234 L 31.537093 34.135901 L 31.674552 34.084741 L 31.735014 34.078023 z M 31.78359 34.586519 L 31.78359 35.586458 L 32.204236 35.586458 L 30.494779 37.296431 L 29.069027 37.296431 L 29.069027 39.296309 L 30.769181 39.296309 L 30.769181 37.87004 L 32.989718 35.650537 A 0.30000001 0.30000001 0 0 0 32.995919 35.644336 A 0.30000001 0.30000001 0 0 0 33.019173 35.619014 A 0.30000001 0.30000001 0 0 0 33.020723 35.616947 A 0.30000001 0.30000001 0 0 0 33.041394 35.586458 L 33.783984 35.586458 L 33.783984 34.586519 L 31.78359 34.586519 z M 25.668717 34.826298 L 26.168945 34.826298 L 26.168945 35.426261 L 27.168884 35.426261 L 27.168884 35.926489 L 26.120886 35.926489 L 26.061458 35.919771 L 25.926583 35.869645 L 25.811344 35.783346 L 25.725562 35.668107 L 25.675435 35.533748 L 25.668717 35.47432 L 25.668717 34.826298 z M 28.669051 34.826298 L 29.168762 34.826298 L 29.168762 35.47432 L 29.162561 35.533748 L 29.111918 35.668107 L 29.026135 35.783346 L 28.910897 35.869645 L 28.776021 35.919771 L 28.716593 35.926489 L 27.668595 35.926489 L 27.668595 35.426261 L 28.669051 35.426261 L 28.669051 34.826298 z M 26.055774 36.796204 L 26.703796 36.796204 L 26.703796 37.296431 L 26.103833 37.296431 L 26.103833 38.046257 L 25.603605 38.046257 L 25.603605 37.248372 L 25.609806 37.188944 L 25.660449 37.054069 L 25.746232 36.938831 L 25.861471 36.853048 L 25.996346 36.802405 L 26.055774 36.796204 z M 27.203507 36.796204 L 27.85153 36.796204 L 27.910958 36.802922 L 28.045833 36.853048 L 28.160555 36.939347 L 28.246855 37.054069 L 28.296981 37.188944 L 28.303699 37.247856 L 28.303699 37.248372 L 28.303699 38.046257 L 27.803988 38.046257 L 27.803988 37.296431 L 27.203507 37.296431 L 27.203507 36.796204 z M 61.168876 37.546545 L 61.168876 39.046195 L 63.668982 39.046195 L 63.668982 37.546545 L 61.168876 37.546545 z M 25.603605 38.545968 L 26.103833 38.545968 L 26.103833 39.296309 L 26.703796 39.296309 L 26.703796 39.796021 L 26.055774 39.796021 L 25.996346 39.789819 L 25.861471 39.739693 L 25.746232 39.653394 L 25.660449 39.538155 L 25.609806 39.403796 L 25.603605 39.343852 L 25.603605 38.545968 z M 27.803988 38.545968 L 28.303699 38.545968 L 28.303699 39.343852 L 28.297498 39.403796 L 28.246855 39.538155 L 28.161072 39.653394 L 28.045833 39.739693 L 27.910958 39.789819 L 27.85153 39.796021 L 27.203507 39.796021 L 27.203507 39.296309 L 27.803988 39.296309 L 27.803988 38.545968 z M 44.618982 39.546423 L 44.618982 42.046529 L 46.319137 42.046529 L 46.319137 39.546423 L 44.618982 39.546423 z M 26.055257 40.787691 L 27.852047 40.787691 L 27.852563 40.787691 L 27.913025 40.794409 L 28.049967 40.845569 L 28.166756 40.932902 L 28.254606 41.050208 L 28.305766 41.18715 L 28.308866 41.216606 L 28.311967 41.247611 L 28.311967 41.363883 L 28.323336 41.415043 L 28.369328 41.46827 L 28.43599 41.487907 L 28.436507 41.487907 L 28.47113 41.482739 L 28.477332 41.478605 L 28.487667 41.476538 L 28.507821 41.458968 L 28.530042 41.445015 L 28.534176 41.436747 L 28.540894 41.431063 L 28.548128 41.405741 L 28.55898 41.381453 L 28.557947 41.372668 L 28.560531 41.363883 L 28.560531 41.247611 L 28.566732 41.18715 L 28.617891 41.050208 L 28.705741 40.932902 L 28.82253 40.845569 L 28.959473 40.794409 L 29.019934 40.787691 L 30.81724 40.787691 L 30.878219 40.794409 L 31.015161 40.845569 L 31.13195 40.932902 L 31.2198 41.050208 L 31.270959 41.18715 L 31.27406 41.216606 L 31.277161 41.247611 L 31.277161 43.344641 L 31.277161 43.345158 L 31.274577 43.37203 L 31.270959 43.405619 L 31.2198 43.542562 L 31.13195 43.659351 L 31.015161 43.747201 L 30.878219 43.79836 L 30.844629 43.801978 L 30.81724 43.804561 L 29.019934 43.804561 L 28.986861 43.800944 L 28.959473 43.79836 L 28.82253 43.747201 L 28.705741 43.659351 L 28.617891 43.542562 L 28.600838 43.497087 L 28.566732 43.405619 L 28.560531 43.345158 L 28.560531 43.228886 L 28.549162 43.177209 L 28.50317 43.1245 L 28.436507 43.104862 L 28.43599 43.104862 L 28.401367 43.109513 L 28.395166 43.113647 L 28.384314 43.115715 L 28.364677 43.133285 L 28.342456 43.147754 L 28.338322 43.155505 L 28.331604 43.161707 L 28.324369 43.187028 L 28.313517 43.210799 L 28.314551 43.220101 L 28.311967 43.228886 L 28.311967 43.344641 L 28.309383 43.37203 L 28.305766 43.405619 L 28.254606 43.542562 L 28.166756 43.659351 L 28.049967 43.747201 L 27.913025 43.79836 L 27.879435 43.801978 L 27.852563 43.804561 L 27.852047 43.804561 L 26.055257 43.804561 L 26.021667 43.800944 L 25.994279 43.79836 L 25.857336 43.747201 L 25.740548 43.659351 L 25.652698 43.542562 L 25.635645 43.497087 L 25.601538 43.405619 L 25.595337 43.344641 L 25.595337 41.247611 L 25.601538 41.18715 L 25.652698 41.050208 L 25.740548 40.932902 L 25.857336 40.845569 L 25.994279 40.794409 L 26.055257 40.787691 z M 26.103833 41.296187 L 26.103833 43.296065 L 27.803988 43.296065 L 27.803988 42.59585 L 29.069027 42.59585 L 29.069027 43.296065 L 30.769181 43.296065 L 30.769181 41.296187 L 29.069027 41.296187 L 29.069027 41.995886 L 27.803988 41.995886 L 27.803988 41.296187 L 26.103833 41.296187 z " />
  <path
     style="fill:#ffffff;fill-opacity:1;fill-rule:evenodd;stroke:none;stroke-width:0.6;stroke-linecap:round;stroke-linejoin:round;stroke-opacity:1"
     d="m 65.36149,14.816501 0.04576,0.0528 0.01121,0.05151 v 32.251 l -0.01968,0.06704 -0.0528,0.04575 -0.05153,0.01121 h -44.251 l -0.06704,-0.01969 -0.04575,-0.0528 -0.01121,-0.05151 V 23.216681 h 2.191 V 43.87595 l 0.03107,0.156189 2e-6,8e-6 0.03047,0.07357 v 1e-6 l 0.03047,0.07356 7e-6,1.3e-5 0.08848,0.132414 3e-6,4e-6 1.612608,1.612608 8e-6,6e-6 0.13241,0.08847 4e-6,3e-6 h 1e-6 l 1e-6,1e-6 0.04309,0.01785 2e-6,10e-7 h 10e-7 l 0.104042,0.0431 0.156196,0.03107 4e-6,10e-7 h 1e-6 7.189261 l 10e-7,-10e-7 0.156199,-0.03107 0.07357,-0.03047 0.07357,-0.03047 0.132421,-0.08848 2.256931,-2.256932 0.06132,-0.03348 0.06969,0.005 0.04435,0.0285 1.25693,1.25693 0.132416,0.08848 6e-6,4e-6 0.02873,0.0119 0.04484,0.01857 0.07357,0.03047 0.156196,0.03107 4e-6,1e-6 h 10e-7 16.409261 l 1e-6,-1e-6 0.156199,-0.03107 0.07357,-0.03047 0.07357,-0.03047 0.132421,-0.08848 1.333184,-1.333184 0.06132,-0.03348 0.02636,-0.0028 h 0.757549 l 0.04745,0.0094 0.02291,0.0095 0.156196,0.03107 4e-6,10e-7 h 10e-7 7.159261 l 10e-7,-10e-7 0.156199,-0.03107 0.02355,-0.0097 0.03603,-0.0082 -7e-5,-6.52e-4 0.03209,-0.0035 0.03177,-0.0034 0.137003,-0.0511 0.117057,-0.08763 0.08763,-0.117057 0.0511,-0.137003 0.0055,-0.0507 0.0014,-0.01317 6.52e-4,7e-5 0.0082,-0.03603 0.0098,-0.02355 0.03107,-0.156201 v -0.15926 l -0.03107,-0.156201 -0.0095,-0.02292 -0.0094,-0.04745 v -0.99244 l -10e-7,-1.7e-5 -0.0041,-0.03835 -0.0024,-0.02219 -0.0023,-0.0063 -0.025,-0.06704 -0.02376,-0.0637 -0.08763,-0.117057 -0.117057,-0.08763 -0.137001,-0.0511 -0.06055,-0.0065 h -1.6e-5 -2.597276 -1.7e-5 l -0.06055,0.0065 h -2e-6 l -0.137,0.0511 -0.117056,0.08763 -0.08763,0.117056 -0.0511,0.137 v 2e-6 l -0.0065,0.06055 v 0.366156 l -0.0026,0.0087 0.0013,0.009 -0.01098,0.02404 -0.0074,0.02535 -0.0068,0.0059 -0.0038,0.0082 -0.02224,0.01429 -0.01997,0.0173 -0.01051,0.0023 -0.0061,0.0039 -0.03493,0.005 h -0.185 l -0.06721,-0.01969 -0.04575,-0.0528 -0.01121,-0.05151 v -4.366155 h 0.433 v 1.597309 l 0.0065,0.06055 v 2e-6 l 0.03854,0.103329 0.01256,0.03367 0.08763,0.117057 0.117057,0.08763 0.137003,0.0511 0.02725,0.0029 0.0333,0.0036 1.7e-5,1e-6 h 2.597276 l 1.6e-5,-1e-6 0.02704,-0.0029 0.03351,-0.0036 0.137003,-0.0511 0.117057,-0.08763 0.08763,-0.117057 0.0511,-0.137003 0.0056,-0.05255 8.6e-4,-0.008 10e-7,-1.7e-5 v -1.597275 l -10e-7,-1.7e-5 -0.0033,-0.03107 -0.0032,-0.02947 -0.0511,-0.137003 -0.08763,-0.117057 -0.117057,-0.08763 -0.137001,-0.0511 -0.06055,-0.0065 h -1.6e-5 -2.597276 -1.7e-5 l -0.06055,0.0065 h -2e-6 l -0.137,0.0511 -0.117056,0.08763 -0.08763,0.117056 -0.0511,0.137 v 2e-6 l -0.0065,0.06055 h -0.433 v -1.228756 l 0.01968,-0.06704 0.0528,-0.04575 0.06477,-0.0105 0.0064,6.88e-4 1.7e-5,1e-6 h 0.797869 0.5 0.797828 l 1.6e-5,-1e-6 0.05953,-0.0064 7e-6,-2e-6 0.134707,-0.05024 7e-6,-4e-6 0.115094,-0.08616 3e-6,-3e-6 0.08616,-0.115094 4e-6,-7e-6 0.05024,-0.134707 2e-6,-7e-6 0.0064,-0.05953 1e-6,-1.7e-5 v -0.647827 h -1.25 v 1.1 h -0.5 v -1.6 h 0.5 1.25 v -0.647828 l -1e-6,-1.7e-5 -0.0064,-0.05953 -2e-6,-7e-6 -0.05024,-0.134707 -4e-6,-7e-6 -0.08616,-0.115094 -3e-6,-3e-6 -0.115094,-0.08616 -7e-6,-4e-6 -0.134707,-0.05024 -7e-6,-2e-6 -0.05953,-0.0064 h -0.797844 v 1.1 h -0.5 v -1.1 h -0.797845 l -0.0064,6.89e-4 -0.06876,-0.0124 -0.05114,-0.04761 -0.01736,-0.06327 v -1.33542 l 0.01968,-0.06704 0.0528,-0.04575 0.05151,-0.01121 h 1.314326 0.5 1.372828 l 1.6e-5,-10e-7 0.05953,-0.0064 7e-6,-2e-6 0.134707,-0.05024 7e-6,-4e-6 0.115094,-0.08616 3e-6,-3e-6 0.08616,-0.115094 4e-6,-7e-6 0.05024,-0.134707 2e-6,-7e-6 0.0064,-0.05953 10e-7,-1.7e-5 v -0.297827 h -1.825 v 0.75 h -0.5 v -1.25 h 0.5 1.825 v -0.297828 l -10e-7,-1.7e-5 -0.0064,-0.05953 -2e-6,-7e-6 -0.05024,-0.134707 -4e-6,-7e-6 -0.08616,-0.115094 -3e-6,-3e-6 -0.115094,-0.08616 -7e-6,-4e-6 -0.134707,-0.05024 -7e-6,-2e-6 -0.05953,-0.0064 h -1.372844 v 0.75 h -0.5 v -0.75 h -1.314311 l -0.06704,-0.01968 -0.04576,-0.0528 -0.01121,-0.05151 v -0.292 l 0.01968,-0.06704 0.0528,-0.04575 0.05151,-0.01121 h 1.314326 0.5 1.372828 l 1.6e-5,-1e-6 0.05953,-0.0064 7e-6,-2e-6 0.134707,-0.05024 7e-6,-4e-6 0.115094,-0.08616 3e-6,-3e-6 0.08616,-0.115094 4e-6,-7e-6 0.05024,-0.134707 2e-6,-7e-6 0.0064,-0.05953 10e-7,-1.7e-5 v -0.297827 h -1.825 v 0.75 h -0.5 v -1.25 h 0.5 1.825 v -0.297828 l -10e-7,-1.7e-5 -0.0064,-0.05953 -2e-6,-7e-6 -0.05024,-0.134707 -4e-6,-7e-6 -0.08616,-0.115094 -3e-6,-3e-6 -0.115094,-0.08616 -7e-6,-4e-6 -0.134707,-0.05024 -7e-6,-2e-6 -0.05953,-0.0064 h -1.372844 v 0.75 h -0.5 v -0.75 h -1.314306 l -0.06704,-0.01968 -0.04576,-0.0528 -0.01121,-0.05151 v -0.292 l 0.01968,-0.06704 0.0528,-0.04575 0.05151,-0.01121 h 1.314326 0.5 1.372828 l 1.6e-5,-1e-6 0.05953,-0.0064 7e-6,-2e-6 0.134707,-0.05024 7e-6,-4e-6 0.115094,-0.08616 3e-6,-3e-6 0.08616,-0.115094 4e-6,-7e-6 0.05024,-0.134707 2e-6,-7e-6 0.0064,-0.05953 10e-7,-1.7e-5 v -0.297827 h -1.825 v 0.75 h -0.5 v -1.25 h 0.5 1.825 v -0.297828 l -10e-7,-1.7e-5 -0.0064,-0.05953 -2e-6,-7e-6 -0.05024,-0.134707 -4e-6,-7e-6 -0.08616,-0.115094 -3e-6,-3e-6 -0.115094,-0.08616 -7e-6,-4e-6 -0.134707,-0.05024 -7e-6,-2e-6 -0.05953,-0.0064 h -1.372844 v 0.75 h -0.5 v -0.75 h -1.314306 l -0.06704,-0.01968 -0.04576,-0.0528 -0.01121,-0.05151 v -0.443611 l -10e-7,-4e-6 -0.0072,-0.03621 -0.02387,-0.119981 -0.05625,-0.135803 -0.0047,-0.01133 -0.0099,-0.01486 -0.07855,-0.117555 -6e-6,-8e-6 -1.612608,-1.612608 -4e-6,-3e-6 -0.132414,-0.08848 -4e-6,-2e-6 -7e-6,-3e-6 -0.07356,-0.03047 -2e-6,-10e-7 -10e-7,-1e-6 -0.07357,-0.03047 -8e-6,-2e-6 -0.156189,-0.03107 h -4e-6 -5.15926 -5e-6 l -0.156189,0.03107 v 1e-6 l -3e-6,10e-7 -4e-6,1e-6 -0.07357,0.03047 h -2e-6 l -0.07356,0.03047 -9e-6,5e-6 -0.132414,0.08848 -4e-6,3e-6 -1.712121,1.712122 -0.0017,-0.0017 -0.04904,0.03341 -0.03812,0.006 H 50.27509 l -0.06055,0.0065 h -2e-6 l -0.137,0.0511 -0.117056,0.08763 -0.08763,0.117056 -0.0511,0.137 v 2e-6 l -0.0065,0.06055 v 1.097309 l 0.0065,0.06055 v 2e-6 l 0.04819,0.129206 0.0029,0.0078 0.08763,0.117057 0.117057,0.08763 0.137003,0.0511 0.02725,0.0029 0.03329,0.0036 1.7e-5,1e-6 h 2.097276 l 1.6e-5,-1e-6 0.02704,-0.0029 0.03351,-0.0036 0.137003,-0.0511 0.117057,-0.08763 0.08763,-0.117057 0.0511,-0.137003 0.0036,-0.03351 0.0029,-0.02704 1e-6,-1.7e-5 v -1.097275 l -1e-6,-1.7e-5 -0.0065,-0.06055 -0.04945,-0.132583 -0.005,-0.06969 0.03348,-0.06132 0.412742,-0.41274 0.06132,-0.03349 0.02636,-0.0028 h 4.227492 l 0.06704,0.01969 0.02064,0.01663 0.92298,0.92298 0.03348,0.06132 -0.005,0.06969 -0.04187,0.05593 -0.06546,0.02442 -0.0088,3.16e-4 H 55.24212 l -0.06055,0.0065 h -2e-6 l -0.137,0.0511 -0.117056,0.08763 -0.08763,0.117056 -0.0511,0.137 v 2e-6 l -0.0065,0.06055 v 0.362401 l -0.01969,0.06704 -0.01663,0.02064 -0.936129,0.936129 -0.06132,0.03348 -0.02636,0.0028 h -4.232076 l -0.06704,-0.01968 -0.03223,-0.03 -0.0038,-0.0051 -0.117058,-0.08763 -0.137001,-0.0511 -0.06055,-0.0065 h -1.6e-5 -2.097276 -1.7e-5 l -0.06055,0.0065 h -2e-6 l -0.137,0.0511 -0.117056,0.08763 -0.08763,0.117056 -0.0511,0.137 v 2e-6 l -0.0065,0.06055 v 1.097309 l 0.0065,0.06055 v 2e-6 l 0.0511,0.137 0.08763,0.117057 0.117057,0.08763 0.137003,0.0511 0.02725,0.0029 0.0333,0.0036 1.7e-5,1e-6 h 2.097276 l 1.6e-5,-1e-6 0.02704,-0.0029 0.03351,-0.0036 0.137003,-0.0511 0.117057,-0.08763 0.0038,-0.0051 0.05593,-0.04187 0.04333,-0.0078 h 4.507269 l 0.06704,0.01968 0.04575,0.0528 0.0099,0.06916 -0.02902,0.06356 -0.006,0.0065 -0.464644,0.464645 -0.06132,0.03349 -0.02636,0.0028 H 51.45446 l -0.02439,0.0049 -0.01569,0.0031 -0.02419,0.0024 h -1.11511 l -0.06055,0.0065 h -2e-6 l -0.137,0.0511 -0.117056,0.08763 -0.08763,0.117056 -0.0511,0.137 v 2e-6 l -0.0065,0.06055 v 1.097309 l 0.0065,0.06055 v 2e-6 l 0.0511,0.136999 v 1e-6 l 0.08763,0.117057 0.117057,0.08763 0.137003,0.0511 0.02725,0.0029 0.03329,0.0036 1.7e-5,1e-6 h 2.097276 l 1.6e-5,-1e-6 0.02704,-0.0029 0.03351,-0.0036 0.137003,-0.0511 0.117057,-0.08763 0.08763,-0.117057 0.01135,-0.03042 0.01379,-0.03697 0.04187,-0.05593 0.06547,-0.02442 0.0088,-3.16e-4 h 1.082627 l 10e-7,-1e-6 0.156199,-0.03107 0.07357,-0.03047 0.07357,-0.03047 0.132421,-0.08848 0.136257,-0.136258 0.06132,-0.03348 0.06969,0.005 0.05593,0.04187 0.02442,0.06547 3.16e-4,0.0088 v 1.037206 l 0.0065,0.06055 v 2e-6 l 0.03631,0.09734 0.005,0.06969 -0.03348,0.06132 -0.06132,0.03349 -0.02636,0.0028 h -5.218841 l -0.06704,-0.01968 -0.03223,-0.03001 -0.0038,-0.0051 -0.05729,-0.04288 -0.05977,-0.04475 -0.137001,-0.0511 -0.06055,-0.0065 h -1.6e-5 -2.097276 -1.7e-5 l -0.06055,0.0065 h -2e-6 l -0.137,0.0511 -0.117056,0.08763 -0.08763,0.117056 -0.0511,0.137 v 2e-6 l -0.0065,0.06055 v 1.097309 l 0.0065,0.06055 v 2e-6 l 0.04002,0.107281 0.01109,0.02972 0.08763,0.117057 0.117057,0.08763 0.137003,0.0511 0.02725,0.0029 0.0333,0.0036 1.7e-5,10e-7 h 2.097276 l 1.6e-5,-10e-7 0.02704,-0.0029 0.03351,-0.0036 0.137003,-0.0511 0.117057,-0.08763 0.0038,-0.0051 0.05593,-0.04187 0.04333,-0.0078 h 5.772961 l 10e-7,-10e-7 0.156199,-0.03107 0.07539,-0.03123 0.07175,-0.02972 0.132421,-0.08848 1.265559,-1.265559 0.06132,-0.03349 0.02636,-0.0028 h 1.43442 l 0.06704,0.01968 0.04576,0.0528 0.01121,0.05151 v 1.318332 l -0.01968,0.06704 -0.0528,0.04575 -0.06475,0.0105 -0.0056,-6.03e-4 h -9e-6 -2.097276 -1.7e-5 l -0.06055,0.0065 h -2e-6 l -0.137,0.0511 -0.117056,0.08763 -0.08763,0.117056 -0.0511,0.137 v 2e-6 l -0.0065,0.06055 v 1.797309 l 0.0065,0.06055 v 2e-6 l 0.02885,0.07736 0.02225,0.05964 0.08763,0.117057 0.117057,0.08763 0.02041,0.0076 0.01872,0.007 0.05593,0.04187 0.02442,0.06546 -0.01485,0.06827 -0.02115,0.02825 -0.685837,0.685838 -0.02693,0.0147 -0.02582,0.01659 -0.0062,8.91e-4 -0.0024,0.0013 -0.02636,0.0028 H 55.35518 l -0.06704,-0.01969 -0.02064,-0.01663 -2.400947,-2.400948 -0.03348,-0.06132 -0.0021,-0.0131 -0.0052,-0.04865 -10e-7,-3e-6 -0.02247,-0.06023 -0.02863,-0.07677 -0.08763,-0.117057 -0.117057,-0.08763 -0.137001,-0.0511 -0.06055,-0.0065 h -1.6e-5 -2.097276 -1.7e-5 l -0.06055,0.0065 h -2e-6 l -0.137,0.0511 -0.117056,0.08763 -0.08763,0.117056 -0.0511,0.137 v 2e-6 l -0.0065,0.06055 v 1.097309 l 0.0065,0.06055 v 2e-6 l 0.03269,0.08763 0.01841,0.04937 0.08763,0.117057 0.117057,0.08763 0.137003,0.0511 0.02725,0.0029 0.03329,0.0036 1.7e-5,1e-6 h 1.117952 l 0.02419,0.0024 0.03651,0.0073 h 2e-6 0.159261 l 0.03651,-0.0073 0.02419,-0.0024 h 0.349328 l 0.06704,0.01969 0.02064,0.01663 1.513399,1.513398 0.03348,0.06132 0.0028,0.02636 v 1.362401 l 0.0065,0.06055 v 2e-6 l 0.03854,0.103329 0.01256,0.03367 0.08763,0.117057 0.117057,0.08763 0.137003,0.0511 0.02725,0.0029 0.0333,0.0036 1.7e-5,10e-7 h 2.597276 l 1.6e-5,-10e-7 0.02704,-0.0029 0.03351,-0.0036 0.137003,-0.0511 0.117057,-0.08763 0.08763,-0.117057 0.0511,-0.137003 0.0056,-0.05255 8.6e-4,-0.008 10e-7,-1.7e-5 v -1.362383 l 0.01969,-0.06704 0.01663,-0.02064 0.833184,-0.833184 0.01786,-0.02672 0.07062,-0.105698 0.03047,-0.07357 0.03047,-0.07357 0.03107,-0.156201 v -0.09713 l 0.0024,-0.0081 -0.0013,-0.0083 0.01098,-0.02468 0.0076,-0.02591 0.0064,-0.0055 0.0034,-0.0077 0.02258,-0.01482 0.02041,-0.01768 0.0099,-0.0022 0.0055,-0.0036 0.03254,-0.0048 0.0023,-5.22e-4 6.17e-4,-6e-6 h 0.116727 l 0.01161,-0.0012 0.006,-5.8e-5 0.02803,0.0079 0.02867,0.0052 0.0045,0.0042 0.006,0.0017 0.01929,0.02183 0.02133,0.01985 0.0017,0.0062 0.0039,0.0045 0.0035,0.02255 0.0082,0.03005 v 5.586183 l -0.01968,0.06704 -0.0528,0.04575 -0.05151,0.01121 h -1.185 l -0.06676,-0.01969 -0.04575,-0.0528 -0.01121,-0.05151 v -0.366138 l -10e-7,-1.7e-5 -0.0041,-0.03835 -0.0024,-0.02219 -0.0023,-0.0063 -0.025,-0.06704 -0.02376,-0.0637 -0.08763,-0.117057 -0.117057,-0.08763 -0.137001,-0.0511 -0.06055,-0.0065 h -1.6e-5 -2.597276 -1.7e-5 l -0.06055,0.0065 h -2e-6 l -0.137,0.0511 -0.117056,0.08763 -0.08763,0.117056 -0.0511,0.137 v 2e-6 l -0.0065,0.06055 v 1.362401 l -0.01969,0.06704 -0.01663,0.02064 -0.503754,0.503754 -0.06132,0.03348 -0.02636,0.0028 H 37.555205 l -0.06704,-0.01968 -0.02064,-0.01663 -0.695102,-0.695102 -0.03348,-0.06132 0.005,-0.06969 0.04187,-0.05593 0.06546,-0.02442 0.03078,0.0025 4e-6,-3.1e-5 0.0012,1.25e-4 0.0054,4.36e-4 0.0011,2.65e-4 7e-6,3e-6 0.0207,0.0022 0.03984,0.0043 1.7e-5,10e-7 h 1.797276 l 1.6e-5,-10e-7 0.02704,-0.0029 0.03351,-0.0036 0.0019,-7.04e-4 0.08798,-0.03282 0.04713,-0.01758 v -1e-6 h 2e-6 l 10e-7,-10e-7 0.09948,-0.07447 0.06546,-0.02442 0.06827,0.01485 0.01488,0.0096 0.09948,0.07447 10e-7,10e-7 0.135119,0.0504 0.0019,7.04e-4 0.02725,0.0029 0.0333,0.0036 1.7e-5,10e-7 h 1.797276 l 1.6e-5,-10e-7 0.02704,-0.0029 0.03351,-0.0036 0.0019,-7.04e-4 0.08798,-0.03282 0.04713,-0.01758 v -1e-6 h 2e-6 l 10e-7,-10e-7 0.09948,-0.07447 0.06546,-0.02442 0.06827,0.01485 0.01488,0.0096 0.09948,0.07447 1e-6,10e-7 0.135119,0.0504 0.0019,7.04e-4 0.02725,0.0029 0.03329,0.0036 1.7e-5,10e-7 h 1.797276 l 1.6e-5,-10e-7 0.02704,-0.0029 0.03351,-0.0036 0.0019,-7.04e-4 0.0269,-0.01003 0.108219,-0.04036 0.106578,-0.07978 0.06546,-0.02442 0.06827,0.01485 0.01488,0.0096 0.09651,0.07225 2e-6,1e-6 0.134707,0.05024 7e-6,2e-6 0.05953,0.0064 1.7e-5,10e-7 h 0.647794 0.5 0.647828 l 1.6e-5,-10e-7 0.05953,-0.0064 7e-6,-2e-6 0.134707,-0.05024 7e-6,-4e-6 0.115094,-0.08616 3e-6,-3e-6 0.08616,-0.115094 4e-6,-7e-6 0.05024,-0.134707 2e-6,-7e-6 0.0064,-0.05953 10e-7,-1.7e-5 v -1.047836 h -1.1 v 1.5 h -0.5 v -2 h 0.5 1.1 v -1.047828 l -10e-7,-1.7e-5 -0.0064,-0.05953 -2e-6,-7e-6 -0.05024,-0.134707 -4e-6,-7e-6 -0.08616,-0.115094 -3e-6,-3e-6 -0.115094,-0.08616 -7e-6,-4e-6 -0.134707,-0.05024 -7e-6,-2e-6 -0.05953,-0.0064 h -0.647844 v 1.5 h -0.5 v -1.5 h -0.647845 l -0.05953,0.0064 -7e-6,2e-6 -0.134707,0.05024 -3e-6,2e-6 -0.09651,0.07225 -0.06546,0.02442 -0.06827,-0.01485 -0.01488,-0.0096 -0.106576,-0.07978 -0.137001,-0.0511 -0.03996,-0.0043 -0.06455,-0.02674 -0.03985,-0.05739 -0.0063,-0.03916 V 22.934507 h 2.786297 l 0.0064,0.05953 2e-6,7e-6 0.05024,0.134707 4e-6,7e-6 0.08616,0.115094 3e-6,3e-6 0.115094,0.08616 7e-6,4e-6 0.134707,0.05024 7e-6,2e-6 0.05953,0.0064 1.7e-5,1e-6 h 0.797828 0.5 0.797828 l 1.6e-5,-1e-6 0.05953,-0.0064 7e-6,-2e-6 0.134707,-0.05024 7e-6,-4e-6 0.115094,-0.08616 3e-6,-3e-6 0.08616,-0.115094 4e-6,-7e-6 0.05024,-0.134707 2e-6,-7e-6 0.0064,-0.05953 1e-6,-1.7e-5 v -0.297827 h -1.25 v 0.75 h -0.5 v -0.75 h -1.25 v 0.297844 h -2.786346 v -0.13283 l -10e-7,-4e-6 -0.03107,-0.156189 -1e-6,-7e-6 -0.03047,-0.07357 v -1e-6 -10e-7 l -0.03047,-0.07356 -1e-6,-1e-6 -2e-6,-6e-6 -4e-6,-6e-6 -0.08848,-0.132416 -0.442723,-0.442723 -0.08438,-0.08438 h 3.493894 v 0.297845 h 1.25 0.5 1.25 V 21.83883 l -1e-6,-1.7e-5 -0.0064,-0.05953 -2e-6,-7e-6 -0.05024,-0.134707 -4e-6,-7e-6 -0.08616,-0.115094 -3e-6,-3e-6 -0.115094,-0.08616 -7e-6,-4e-6 -0.134707,-0.05024 -7e-6,-2e-6 -0.05953,-0.0064 h -0.797844 v 0.75 h -0.5 v -0.75 h -0.797845 l -0.05953,0.0064 -7e-6,2e-6 -0.134707,0.05024 -7e-6,4e-6 -0.115094,0.08616 -3e-6,3e-6 -0.08616,0.115094 -4e-6,7e-6 -0.05024,0.134707 -2e-6,7e-6 -0.0064,0.05953 h -3.493894 l -0.971975,-0.971974 -0.03348,-0.06132 0.005,-0.06969 0.04187,-0.05593 0.06546,-0.02442 0.0088,-3.16e-4 h 7.711864 l 0.06704,0.01969 0.03223,0.03 0.0038,0.0051 h 1e-6 l 10e-7,2e-6 0.117057,0.08763 0.137003,0.0511 0.02725,0.0029 0.03329,0.0036 1.7e-5,1e-6 h 2.097276 l 1.6e-5,-1e-6 0.02704,-0.0029 0.03351,-0.0036 0.137003,-0.0511 0.117057,-0.08763 0.08763,-0.117057 0.0511,-0.137003 0.0036,-0.03351 0.0029,-0.02704 10e-7,-1.7e-5 v -1.097275 l -10e-7,-1.7e-5 -0.0033,-0.03108 -0.0032,-0.02947 -0.0511,-0.137003 -0.08763,-0.117057 -0.117057,-0.08763 -0.137001,-0.0511 -0.06055,-0.0065 h -1.6e-5 -2.097276 -1.7e-5 l -0.06055,0.0065 h -2e-6 l -0.137,0.0511 -0.117058,0.08763 -0.0038,0.0051 -0.05593,0.04187 -0.04333,0.0078 h -9.576865 l -0.06704,-0.01969 -0.02064,-0.01663 -1.759372,-1.759373 -0.03632,-0.03632 h 17.604848 l 5.50067,5.50067 0.898234,-0.898234 -5.50067,-5.50067 -0.898234,0.898234 H 38.397187 l -1.037844,-1.037845 -4e-6,-3e-6 -0.132414,-0.08848 -4e-6,-2e-6 -2e-6,-1e-6 -0.07357,-0.03047 -2e-6,-1e-6 -10e-7,-1e-6 -0.07356,-0.03047 -8e-6,-2e-6 -0.156189,-0.03107 h -4e-6 -7.625056 l -0.06704,-0.01969 -0.04575,-0.0528 -0.0105,-0.03826 -0.0043,-0.03996 -1e-6,-3e-6 -0.02247,-0.06023 -0.02863,-0.07677 -0.08763,-0.117057 -0.117057,-0.08763 -0.137001,-0.0511 -0.06055,-0.0065 h -1.6e-5 -2.597276 -1.7e-5 l -0.06055,0.0065 h -2e-6 l -0.137,0.0511 -0.117056,0.08763 -0.08763,0.117056 -0.0511,0.137 v 2e-6 l -0.0065,0.06055 v 1.797309 l 0.0065,0.06055 v 2e-6 l 0.0511,0.137 0.07978,0.106576 0.02442,0.06546 -0.01485,0.06827 -0.0096,0.01488 -0.07225,0.09651 -2e-6,3e-6 -0.05024,0.134707 -2e-6,7e-6 -0.0064,0.05953 v 0.647836 h 3.5 v -0.647828 l -1e-6,-1.7e-5 -0.0064,-0.05953 -2e-6,-7e-6 -0.05024,-0.134707 -1e-6,-2e-6 -0.07225,-0.09651 -0.02442,-0.06546 0.01485,-0.06827 0.0096,-0.01488 0.07979,-0.106585 0.0511,-0.137003 0.0043,-0.03996 0.02674,-0.06455 0.05739,-0.03985 0.03916,-0.0063 h 7.159172 l 0.06704,0.01969 0.02064,0.01663 2.716584,2.716583 2.1e-5,2.3e-5 2.822149,2.822148 0.03348,0.06132 0.0028,0.02636 v 15.649171 l -0.01968,0.06704 -0.0528,0.04575 -0.03825,0.01049 -0.03996,0.0043 h -1e-6 l -0.137,0.0511 -0.09948,0.07447 -0.06546,0.02442 -0.06827,-0.01485 -0.01488,-0.0096 -0.01921,-0.01438 -0.08027,-0.06009 -0.0013,-4.74e-4 -0.13573,-0.05063 -0.03996,-0.0043 -0.06455,-0.02674 -0.03985,-0.05739 -0.0063,-0.03916 v -7.230056 l -1e-6,-4e-6 -0.01597,-0.08029 -0.0151,-0.0759 -0.01785,-0.0431 -0.01262,-0.03047 v -10e-7 l -0.03047,-0.07356 -1e-6,-1e-6 -2e-6,-6e-6 -4e-6,-6e-6 -0.08848,-0.132416 -1.872256,-1.872256 -4e-6,-3e-6 -0.132414,-0.08848 -4e-6,-2e-6 -2e-6,-1e-6 -0.07357,-0.03047 -2e-6,-10e-7 -1e-6,-1e-6 -0.07356,-0.03047 -8e-6,-2e-6 -0.156189,-0.03107 h -4e-6 -4.458864 l -0.06704,-0.01969 -0.03223,-0.03 -0.0038,-0.0051 -0.117058,-0.08763 -0.137001,-0.0511 -0.06055,-0.0065 h -1.6e-5 -1.532536 l -0.06704,-0.01968 -0.04575,-0.0528 -0.0099,-0.06916 0.02903,-0.06356 0.006,-0.0065 0.475,-0.475 0.06132,-0.03348 0.02636,-0.0028 h 1.842574 l 0.06704,0.01968 0.03223,0.03001 0.0038,0.0051 h 10e-7 l 10e-7,2e-6 0.117057,0.08763 0.137003,0.0511 0.02725,0.0029 0.0333,0.0036 1.7e-5,1e-6 h 2.097276 l 1.6e-5,-1e-6 0.02704,-0.0029 0.03351,-0.0036 0.137003,-0.0511 0.117057,-0.08763 0.08763,-0.117057 0.0511,-0.137003 0.0036,-0.03351 0.0029,-0.02704 10e-7,-1.7e-5 v -1.097275 l -10e-7,-1.7e-5 -0.0057,-0.05273 -8.4e-4,-0.0078 -0.0511,-0.137003 -0.08763,-0.117057 -0.117057,-0.08763 -0.137001,-0.0511 -0.06055,-0.0065 h -1.6e-5 -2.097276 -1.7e-5 l -0.06055,0.0065 h -2e-6 l -0.137,0.0511 -0.117058,0.08763 -0.0038,0.0051 -0.05593,0.04187 -0.04333,0.0078 h -2.122422 l -0.06704,-0.01968 -0.04575,-0.0528 -0.0099,-0.06916 0.02902,-0.06356 0.006,-0.0065 0.475001,-0.475 0.06132,-0.03348 0.02636,-0.0028 h 0.862384 l 1.6e-5,-1e-6 0.02704,-0.0029 0.03351,-0.0036 0.137003,-0.0511 0.117057,-0.08763 0.08763,-0.117057 0.0511,-0.137003 0.0036,-0.03351 0.0029,-0.02704 1e-6,-1.7e-5 v -1.097275 l -1e-6,-1.7e-5 -0.0033,-0.03108 -0.0032,-0.02947 -0.0511,-0.137003 -0.08763,-0.117057 -0.117057,-0.08763 -0.02439,-0.0091 -0.112613,-0.042 h -2e-6 l -0.06055,-0.0065 h -1.6e-5 -1.532536 l -0.06704,-0.01968 -0.04575,-0.0528 -0.0099,-0.06916 0.02903,-0.06356 0.006,-0.0065 0.475,-0.475 0.06132,-0.03348 0.02636,-0.0028 h 1.842574 l 0.06704,0.01968 0.03223,0.03 0.0038,0.0051 h 10e-7 l 10e-7,2e-6 0.117057,0.08763 0.114501,0.04271 0.01717,0.0064 0.0053,0.002 0.02725,0.0029 0.0333,0.0036 1.7e-5,1e-6 h 2.097276 l 1.6e-5,-1e-6 0.02704,-0.0029 0.03351,-0.0036 0.0053,-0.002 0.01717,-0.0064 0.114501,-0.04271 0.117057,-0.08763 0.08763,-0.117057 0.0511,-0.137003 0.0036,-0.03351 0.0029,-0.02704 10e-7,-1.9e-5 v -1.097273 l -10e-7,-1.7e-5 -0.0033,-0.03107 -0.0032,-0.02947 -0.0511,-0.137003 -0.08763,-0.117057 -0.117057,-0.08763 -0.137001,-0.0511 -0.06055,-0.0065 h -1.6e-5 -2.097276 -1.7e-5 l -0.06055,0.0065 h -2e-6 l -0.137,0.0511 -0.117058,0.08763 -0.0038,0.0051 -0.05593,0.04187 -0.04333,0.0078 h -2.122401 l -0.06704,-0.01968 -0.04575,-0.0528 -0.0099,-0.06916 0.02902,-0.06356 0.006,-0.0065 0.206658,-0.206657 0.268343,-0.268343 0.06132,-0.03348 0.02636,-0.0028 h 0.862384 l 1.6e-5,-1e-6 0.02704,-0.0029 0.03351,-0.0036 0.137003,-0.0511 0.117057,-0.08763 0.08763,-0.117057 0.0511,-0.137003 0.0036,-0.03351 0.0029,-0.02704 1e-6,-1.7e-5 v -1.097275 l -1e-6,-1.7e-5 -0.0033,-0.03108 -0.0032,-0.02947 -0.0511,-0.137003 -0.08763,-0.117057 -0.117057,-0.08763 -0.137001,-0.0511 -0.06055,-0.0065 h -1.6e-5 -2.097276 -1.7e-5 l -0.06055,0.0065 h -2e-6 l -0.137,0.0511 -0.117056,0.08763 -0.08763,0.117056 -0.0511,0.137 v 2e-6 l -0.0065,0.06055 v 0.862401 l -0.01968,0.06704 -0.01663,0.02064 -1.849797,1.849797 -0.06132,0.03348 -0.06969,-0.005 -0.05593,-0.04187 -0.02442,-0.06546 -3.16e-4,-0.0088 v -1.032536 l -1e-6,-1.7e-5 -0.0033,-0.03108 -0.0032,-0.02947 -0.0096,-0.02563 -0.03206,-0.08596 -0.0095,-0.02542 -0.07978,-0.106578 -0.02442,-0.06546 0.01485,-0.06827 0.0096,-0.01488 0.07224,-0.09651 2e-6,-3e-6 0.05024,-0.134707 2e-6,-7e-6 0.0064,-0.05953 1e-6,-1.7e-5 v -0.648052 h -3.5 v 0.647844 l 0.0064,0.05953 2e-6,7e-6 0.05024,0.134707 1e-6,2e-6 0.07225,0.09651 0.02442,0.06546 -0.01485,0.06827 -0.0096,0.01488 -0.07978,0.106575 h -1e-6 l -0.0511,0.137002 -1e-6,3e-6 -0.0043,0.03996 -0.02674,0.06455 -0.05739,0.03985 -0.03916,0.0063 h -0.28009 l -0.156189,0.03107 -1.2e-5,3e-6 -0.06094,0.02524 -0.08619,0.0357 -2e-6,1e-6 -0.132417,0.08848 -4e-6,3e-6 -1.532611,1.532611 -0.08848,0.132421 -3e-6,5e-6 -0.0091,0.02195 -10e-7,3e-6 -0.05185,0.125175 -2e-6,8e-6 -0.03107,0.156189 h -2.191002 v -8.295809 l 0.01969,-0.06704 0.0528,-0.04576 0.05151,-0.01121 h 44.251 z"
     id="path110" />
</svg>
