<?xml version="1.0" standalone="no"?>
 <!DOCTYPE svg PUBLIC "-//W3C//DTD SVG 1.1//EN" 
 "http://www.w3.org/Graphics/SVG/1.1/DTD/svg11.dtd"> 
<svg
  xmlns:svg="http://www.w3.org/2000/svg"
  xmlns="http://www.w3.org/2000/svg"
  xmlns:xlink="http://www.w3.org/1999/xlink"
  version="1.1"
  width="297.002200mm" height="210.007200mm" viewBox="0.000000 0.000000 297.002200 210.007200">
<title>SVG Image created as fla-xiao-F_Cu.svg date 2025/10/14 13:14:43 </title>
  <desc>Image generated by PCBNEW </desc>
<g style="fill:#000000; fill-opacity:1.000000;stroke:#000000; stroke-opacity:1.000000;
stroke-linecap:round; stroke-linejoin:round;"
 transform="translate(0 0) scale(1 1)">
</g>
<g style="fill:#000000; fill-opacity:1.000000; 
stroke:#000000; stroke-width:0.021200; stroke-opacity:1; 
stroke-linecap:round; stroke-linejoin:round;">
<rect x="-14.186906" y="-42.468250" width="75.545638" height="47.018250" rx="0.000000" />
<path style="fill:#FFFFFF; fill-opacity:1.000000; stroke:none;fill-rule:evenodd;"
d="M 42.092766,-25.987720
41.083754,-24.978708
40.074742,-25.987720
40.192592,-25.987720
40.934536,-25.245776
41.082717,-25.393958
41.231935,-25.244740
41.676480,-25.689285
41.081681,-26.284084
41.231935,-26.434338
41.826734,-25.839539
41.974915,-25.987720
41.232971,-26.729664
41.083754,-26.580447
40.934536,-26.729664
40.637136,-26.432265
41.231935,-25.837466
40.935572,-25.541103
40.340773,-26.135902
40.192592,-25.987720
40.074742,-25.987720
39.035398,-27.027064
39.153248,-27.027064
40.044410,-26.135902
40.192592,-26.284084
39.894156,-26.582519
40.488955,-27.177318
40.787390,-26.878882
40.935572,-27.027064
40.044410,-27.918226
39.896229,-27.770044
40.192592,-27.473681
39.597793,-26.878882
39.301430,-27.175245
39.153248,-27.027064
39.035398,-27.027064
38.590335,-27.472127
38.708186,-27.472127
39.004549,-27.175763
39.300912,-27.472127
39.004549,-27.768490
38.708186,-27.472127
38.590335,-27.472127
37.550992,-28.511470
37.668842,-28.511470
37.965205,-28.215107
38.409750,-28.659651
38.855914,-28.213488
38.411369,-27.768943
38.560004,-27.620308
39.301948,-28.362252
39.153313,-28.510887
39.004095,-28.361669
38.557932,-28.807833
38.708186,-28.958087
39.153767,-28.512506
39.301948,-28.660688
38.707149,-29.255486
38.557932,-29.106269
38.410786,-29.253414
37.668842,-28.511470
37.550992,-28.511470
36.511649,-29.550813
36.629499,-29.550813
37.520661,-28.659651
37.668842,-28.807833
37.074044,-29.402632
37.817024,-30.145612
37.520661,-30.441975
36.629499,-29.550813
36.511649,-29.550813
35.472305,-30.590157
35.590156,-30.590157
35.886519,-30.293794
36.331063,-30.738338
36.777681,-30.291721
36.925862,-30.439903
36.479245,-30.886520
36.629499,-31.036774
37.224298,-30.441975
37.372479,-30.590157
36.481317,-31.481318
35.590156,-30.590157
35.472305,-30.590157
36.481317,-31.599169
Z" /> 
<path style="fill:#FFFFFF; fill-opacity:1.000000; stroke:none;fill-rule:evenodd;"
d="M 34.871826,-21.512020
34.871826,-22.512020
38.021826,-22.512020
38.021826,-21.512020
Z" /> 
<path style="fill:#FFFFFF; fill-opacity:1.000000; stroke:none;fill-rule:evenodd;"
d="M 39.921826,-21.512020
39.921826,-22.512020
43.071826,-22.512020
43.071826,-21.512020
Z" /> 
<path style="fill:#FFFFFF; fill-opacity:1.000000; stroke:none;fill-rule:evenodd;"
d="M 34.871826,-18.972020
34.871826,-19.972020
38.021826,-19.972020
38.021826,-18.972020
Z" /> 
<path style="fill:#FFFFFF; fill-opacity:1.000000; stroke:none;fill-rule:evenodd;"
d="M 39.921826,-18.972020
39.921826,-19.972020
43.071826,-19.972020
43.071826,-18.972020
Z" /> 
<path style="fill:#FFFFFF; fill-opacity:1.000000; stroke:none;fill-rule:evenodd;"
d="M 34.871826,-16.432020
34.871826,-17.432020
38.021826,-17.432020
38.021826,-16.432020
Z" /> 
<path style="fill:#FFFFFF; fill-opacity:1.000000; stroke:none;fill-rule:evenodd;"
d="M 39.921826,-16.432020
39.921826,-17.432020
43.071826,-17.432020
43.071826,-16.432020
Z" /> 
<path style="fill:#FFFFFF; fill-opacity:1.000000; stroke:none;fill-rule:evenodd;"
d="M 10.350000,-4.500000
8.650000,-4.500000
8.650000,-6.500000
10.350000,-6.500000
Z" /> 
<path style="fill:#FFFFFF; fill-opacity:1.000000; stroke:none;fill-rule:evenodd;"
d="M 10.350000,-8.500000
8.650000,-8.500000
8.650000,-10.500000
10.350000,-10.500000
Z" /> 
<path style="fill:#FFFFFF; fill-opacity:1.000000; stroke:none;fill-rule:evenodd;"
d="M 33.750000,-8.750000
33.750000,-10.250000
36.250000,-10.250000
36.250000,-8.750000
Z" /> 
<path style="fill:#FFFFFF; fill-opacity:1.000000; stroke:none;fill-rule:evenodd;"
d="M 40.750000,-8.750000
40.750000,-10.250000
43.250000,-10.250000
43.250000,-8.750000
Z" /> 
<path style="fill:#FFFFFF; fill-opacity:1.000000; stroke:none;fill-rule:evenodd;"
d="M 33.750000,-4.750000
33.750000,-6.250000
36.250000,-6.250000
36.250000,-4.750000
Z" /> 
<path style="fill:#FFFFFF; fill-opacity:1.000000; stroke:none;fill-rule:evenodd;"
d="M 40.750000,-4.750000
40.750000,-6.250000
43.250000,-6.250000
43.250000,-4.750000
Z" /> 
<path style="fill:#FFFFFF; fill-opacity:1.000000; stroke:none;fill-rule:evenodd;"
d="M 8.250000,-14.070000
8.250000,-12.370000
5.750000,-12.370000
5.750000,-14.070000
Z" /> 
<path style="fill:#FFFFFF; fill-opacity:1.000000; stroke:none;fill-rule:evenodd;"
d="M 8.250000,-16.610000
8.250000,-14.910000
5.750000,-14.910000
5.750000,-16.610000
Z" /> 
<path style="fill:#FFFFFF; fill-opacity:1.000000; stroke:none;fill-rule:evenodd;"
d="M 8.250000,-19.150000
8.250000,-17.450000
5.750000,-17.450000
5.750000,-19.150000
Z" /> 
<path style="fill:#FFFFFF; fill-opacity:1.000000; stroke:none;fill-rule:evenodd;"
d="M 8.250000,-21.690000
8.250000,-19.990000
5.750000,-19.990000
5.750000,-21.690000
Z" /> 
<path style="fill:#FFFFFF; fill-opacity:1.000000; stroke:none;fill-rule:evenodd;"
d="M 8.250000,-24.230000
8.250000,-22.530000
5.750000,-22.530000
5.750000,-24.230000
Z" /> 
<path style="fill:#FFFFFF; fill-opacity:1.000000; stroke:none;fill-rule:evenodd;"
d="M 8.250000,-26.770000
8.250000,-25.070000
5.750000,-25.070000
5.750000,-26.770000
Z" /> 
<path style="fill:#FFFFFF; fill-opacity:1.000000; stroke:none;fill-rule:evenodd;"
d="M 8.250000,-29.310000
8.250000,-27.610000
5.750000,-27.610000
5.750000,-29.310000
Z" /> 
<path style="fill:#FFFFFF; fill-opacity:1.000000; stroke:none;fill-rule:evenodd;"
d="M 8.250000,-31.850000
8.250000,-30.150000
5.750000,-30.150000
5.750000,-31.850000
Z" /> 
<path style="fill:#FFFFFF; fill-opacity:1.000000; stroke:none;fill-rule:evenodd;"
d="M 11.364797,-27.449645
11.364797,-28.449645
13.364797,-28.449645
13.364797,-27.449645
Z" /> 
<path style="fill:#FFFFFF; fill-opacity:1.000000; stroke:none;fill-rule:evenodd;"
d="M 14.664797,-24.909645
14.664797,-25.909645
16.664797,-25.909645
16.664797,-24.909645
Z" /> 
<path style="fill:#FFFFFF; fill-opacity:1.000000; stroke:none;fill-rule:evenodd;"
d="M 11.364797,-22.369645
11.364797,-23.369645
13.364797,-23.369645
13.364797,-22.369645
Z" /> 
<path style="fill:#FFFFFF; fill-opacity:1.000000; stroke:none;fill-rule:evenodd;"
d="M 14.664797,-19.829645
14.664797,-20.829645
16.664797,-20.829645
16.664797,-19.829645
Z" /> 
<path style="fill:#FFFFFF; fill-opacity:1.000000; stroke:none;fill-rule:evenodd;"
d="M 11.364797,-17.289645
11.364797,-18.289645
13.364797,-18.289645
13.364797,-17.289645
Z" /> 
<path style="fill:#FFFFFF; fill-opacity:1.000000; stroke:none;fill-rule:evenodd;"
d="M 14.664797,-14.749645
14.664797,-15.749645
16.664797,-15.749645
16.664797,-14.749645
Z" /> 
<path style="fill:#FFFFFF; fill-opacity:1.000000; stroke:none;fill-rule:evenodd;"
d="M 11.364797,-12.209645
11.364797,-13.209645
13.364797,-13.209645
13.364797,-12.209645
Z" /> 
<path style="fill:#FFFFFF; fill-opacity:1.000000; stroke:none;fill-rule:evenodd;"
d="M 29.904797,-12.209645
29.904797,-13.209645
31.904797,-13.209645
31.904797,-12.209645
Z" /> 
<path style="fill:#FFFFFF; fill-opacity:1.000000; stroke:none;fill-rule:evenodd;"
d="M 26.604797,-14.749645
26.604797,-15.749645
28.604797,-15.749645
28.604797,-14.749645
Z" /> 
<path style="fill:#FFFFFF; fill-opacity:1.000000; stroke:none;fill-rule:evenodd;"
d="M 29.904797,-17.289645
29.904797,-18.289645
31.904797,-18.289645
31.904797,-17.289645
Z" /> 
<path style="fill:#FFFFFF; fill-opacity:1.000000; stroke:none;fill-rule:evenodd;"
d="M 26.604797,-19.829645
26.604797,-20.829645
28.604797,-20.829645
28.604797,-19.829645
Z" /> 
<path style="fill:#FFFFFF; fill-opacity:1.000000; stroke:none;fill-rule:evenodd;"
d="M 29.904797,-22.369645
29.904797,-23.369645
31.904797,-23.369645
31.904797,-22.369645
Z" /> 
<path style="fill:#FFFFFF; fill-opacity:1.000000; stroke:none;fill-rule:evenodd;"
d="M 26.604797,-24.909645
26.604797,-25.909645
28.604797,-25.909645
28.604797,-24.909645
Z" /> 
<path style="fill:#FFFFFF; fill-opacity:1.000000; stroke:none;fill-rule:evenodd;"
d="M 29.904797,-27.449645
29.904797,-28.449645
31.904797,-28.449645
31.904797,-27.449645
Z" /> 
<path style="fill:#FFFFFF; fill-opacity:1.000000; stroke:none;fill-rule:evenodd;"
d="M 24.200000,-8.250000
25.900000,-8.250000
25.900000,-5.750000
24.200000,-5.750000
Z" /> 
<path style="fill:#FFFFFF; fill-opacity:1.000000; stroke:none;fill-rule:evenodd;"
d="M 21.660000,-8.250000
23.360000,-8.250000
23.360000,-5.750000
21.660000,-5.750000
Z" /> 
<path style="fill:#FFFFFF; fill-opacity:1.000000; stroke:none;fill-rule:evenodd;"
d="M 19.120000,-8.250000
20.820000,-8.250000
20.820000,-5.750000
19.120000,-5.750000
Z" /> 
<path style="fill:#FFFFFF; fill-opacity:1.000000; stroke:none;fill-rule:evenodd;"
d="M 16.580000,-8.250000
18.280000,-8.250000
18.280000,-5.750000
16.580000,-5.750000
Z" /> 
<path style="fill:#FFFFFF; fill-opacity:1.000000; stroke:none;fill-rule:evenodd;"
d="M 14.040000,-8.250000
15.740000,-8.250000
15.740000,-5.750000
14.040000,-5.750000
Z" /> 
<path style="fill:#FFFFFF; fill-opacity:1.000000; stroke:none;fill-rule:evenodd;"
d="M 36.000000,-12.150000
36.000000,-13.850000
38.000000,-13.850000
38.000000,-12.150000
Z" /> 
<path style="fill:#FFFFFF; fill-opacity:1.000000; stroke:none;fill-rule:evenodd;"
d="M 40.000000,-12.150000
40.000000,-13.850000
42.000000,-13.850000
42.000000,-12.150000
Z" /> 
<path style="fill:#FFFFFF; fill-opacity:1.000000; stroke:none;fill-rule:evenodd;"
d="M 5.684801,-10.500000
7.384801,-10.500000
7.384801,-8.500000
5.684801,-8.500000
Z" /> 
<path style="fill:#FFFFFF; fill-opacity:1.000000; stroke:none;fill-rule:evenodd;"
d="M 5.684801,-6.500000
7.384801,-6.500000
7.384801,-4.500000
5.684801,-4.500000
Z" /> 
</g>
<g style="fill:none; 
stroke:#FFFFFF; stroke-width:0.600000; stroke-opacity:1; 
stroke-linecap:round; stroke-linejoin:round;">
<path d="M11.969645 -20.329645
L15.664797 -20.329645
" />
<path d="M7.400000 -15.760000
L11.969645 -20.329645
" />
<path d="M7.000000 -15.760000
L7.400000 -15.760000
" />
<path d="M7.795152 -18.300000
L12.364797 -22.869645
" />
<path d="M7.000000 -18.300000
L7.795152 -18.300000
" />
<path d="M11.969645 -25.409645
L15.664797 -25.409645
" />
<path d="M7.400000 -20.840000
L11.969645 -25.409645
" />
<path d="M7.000000 -20.840000
L7.400000 -20.840000
" />
<path d="M7.795152 -23.380000
L12.364797 -27.949645
" />
<path d="M7.000000 -23.380000
L7.795152 -23.380000
" />
<path d="M7.000000 -31.000000
L16.425000 -31.000000
" />
<path d="M16.425000 -31.000000
L19.475355 -27.949645
" />
<path d="M39.000000 -23.500000
L39.000000 -5.000000
" />
<path d="M37.500000 -25.000000
L39.000000 -23.500000
" />
<path d="M32.500000 -25.000000
L37.500000 -25.000000
" />
<path d="M30.904797 -22.869645
L30.904797 -23.404797
" />
<path d="M30.904797 -23.404797
L32.500000 -25.000000
" />
<path d="M39.000000 -5.000000
L43.000000 -5.000000
" />
<path d="M37.000000 -11.500000
L35.000000 -9.500000
" />
<path d="M37.000000 -13.000000
L37.000000 -11.500000
" />
<path d="M30.904797 -12.709645
L31.790355 -12.709645
" />
<path d="M31.790355 -12.709645
L35.000000 -9.500000
" />
<path d="M33.000000 -3.500000
L35.000000 -5.500000
" />
<path d="M16.750000 -3.500000
L33.000000 -3.500000
" />
<path d="M14.890000 -5.360000
L16.750000 -3.500000
" />
<path d="M14.890000 -6.600000
L14.890000 -5.360000
" />
<path d="M33.500000 -18.000000
L34.972020 -19.472020
" />
<path d="M31.115152 -18.000000
L33.500000 -18.000000
" />
<path d="M34.972020 -19.472020
L36.446826 -19.472020
" />
<path d="M30.904797 -17.789645
L31.115152 -18.000000
" />
<path d="M34.764451 -15.249645
L36.446826 -16.932020
" />
<path d="M27.604797 -15.249645
L34.764451 -15.249645
" />
<path d="M33.689451 -20.329645
L35.371826 -22.012020
" />
<path d="M35.371826 -22.012020
L36.446826 -22.012020
" />
<path d="M27.604797 -20.329645
L33.689451 -20.329645
" />
<path d="M36.000000 -5.000000
L39.000000 -5.000000
" />
<path d="M31.114442 -12.500000
L30.904797 -12.709645
" />
<path d="M6.534801 -5.500000
L9.500000 -5.500000
" />
<path d="M12.364797 -12.364797
L9.500000 -9.500000
" />
<path d="M12.364797 -12.709645
L12.364797 -12.364797
" />
<path d="M18.210355 -17.789645
L12.364797 -17.789645
" />
<path d="M19.970000 -16.030000
L18.210355 -17.789645
" />
<path d="M19.970000 -7.000000
L19.970000 -16.030000
" />
<path d="M30.914298 -17.780146
L30.904798 -17.789646
" />
<path d="M12.355299 -27.940146
L12.364798 -27.949645
" />
<path d="M14.890000 -6.600000
L14.890000 -6.165000
" />
<path d="M14.890000 -7.000000
L14.890000 -6.600000
" />
<path d="M30.904799 -22.869645
L30.914296 -22.860146
" />
<path d="M30.895298 -22.860146
L30.904799 -22.869645
" />
<path d="M30.914300 -27.940144
L30.904798 -27.949646
" />
<path d="M30.904797 -27.949645
L19.475355 -27.949645
" />
<path d="M22.510000 -24.915000
L22.510000 -23.750000
" />
<path d="M19.475355 -27.949645
L22.510000 -24.915000
" />
<path d="M22.510000 -23.750000
L22.510000 -7.000000
" />
<path d="M17.430000 -11.295000
L16.150000 -12.575000
" />
<path d="M16.150000 -12.575000
L16.150000 -14.764442
" />
<path d="M17.430000 -7.000000
L17.430000 -11.295000
" />
<path d="M16.150000 -14.764442
L15.664797 -15.249645
" />
<path style="fill:#FFFFFF; fill-opacity:1.000000; stroke:none;fill-rule:evenodd;"
d="M 44.942539,-32.979815
44.988294,-32.927011
44.999500,-32.875500
44.999500,-0.624500
44.979815,-0.557461
44.927011,-0.511706
44.875500,-0.500500
0.624500,-0.500500
0.557461,-0.520185
0.511706,-0.572989
0.500500,-0.624500
0.500500,-6.548655
5.176301,-6.548655
5.176301,-4.451346
5.182812,-4.390798
5.182812,-4.390796
5.217010,-4.299111
5.233912,-4.253796
5.321540,-4.136739
5.438597,-4.049111
5.575600,-3.998011
5.602851,-3.995082
5.636146,-3.991501
5.636163,-3.991500
7.433439,-3.991500
7.433455,-3.991501
7.460493,-3.994409
7.494002,-3.998011
7.631005,-4.049111
7.748062,-4.136739
7.835690,-4.253796
7.886790,-4.390799
7.890392,-4.424308
7.893300,-4.451346
7.893301,-4.451363
7.893301,-4.567500
7.895851,-4.576186
7.894563,-4.585147
7.905541,-4.609188
7.912986,-4.634539
7.919826,-4.640467
7.923588,-4.648703
7.945822,-4.662993
7.965790,-4.680294
7.976304,-4.682582
7.982366,-4.686477
8.017301,-4.691500
8.017500,-4.691500
8.084539,-4.671815
8.130294,-4.619011
8.141500,-4.567500
8.141500,-4.451346
8.148011,-4.390798
8.148011,-4.390796
8.182209,-4.299111
8.199111,-4.253796
8.286739,-4.136739
8.403796,-4.049111
8.540799,-3.998011
8.568050,-3.995082
8.601345,-3.991501
8.601362,-3.991500
10.398638,-3.991500
10.398654,-3.991501
10.425692,-3.994409
10.459201,-3.998011
10.596204,-4.049111
10.713261,-4.136739
10.800889,-4.253796
10.851989,-4.390799
10.855591,-4.424308
10.858499,-4.451346
10.858500,-4.451363
10.858500,-6.548638
10.858499,-6.548655
10.855157,-6.579730
10.851989,-6.609201
10.800889,-6.746204
10.713261,-6.863261
10.596204,-6.950889
10.459203,-7.001989
10.398654,-7.008500
10.398638,-7.008500
8.601362,-7.008500
8.601345,-7.008500
8.540797,-7.001989
8.540795,-7.001989
8.403795,-6.950889
8.286739,-6.863261
8.199111,-6.746205
8.148011,-6.609205
8.148011,-6.609203
8.141500,-6.548655
8.141500,-6.432500
8.138949,-6.423815
8.140238,-6.414853
8.129259,-6.390813
8.121815,-6.365461
8.114974,-6.359534
8.111213,-6.351297
8.088978,-6.337008
8.069011,-6.319706
8.058496,-6.317419
8.052435,-6.313523
8.017500,-6.308500
8.017301,-6.308500
7.950262,-6.328185
7.904507,-6.380989
7.893301,-6.432500
7.893301,-6.548638
7.893300,-6.548655
7.889958,-6.579730
7.886790,-6.609201
7.835690,-6.746204
7.748062,-6.863261
7.631005,-6.950889
7.494004,-7.001989
7.433455,-7.008500
7.433439,-7.008500
5.636163,-7.008500
5.636146,-7.008500
5.575598,-7.001989
5.575596,-7.001989
5.438596,-6.950889
5.321540,-6.863261
5.233912,-6.746205
5.182812,-6.609205
5.182812,-6.609203
5.176301,-6.548655
0.500500,-6.548655
0.500500,-8.452156
5.184801,-8.452156
5.191202,-8.392628
5.191204,-8.392621
5.241446,-8.257914
5.241450,-8.257907
5.327610,-8.142813
5.327613,-8.142810
5.442707,-8.056650
5.442714,-8.056646
5.577421,-8.006404
5.577428,-8.006402
5.636956,-8.000001
5.636973,-8.000000
6.284801,-8.000000
6.784801,-8.000000
7.432629,-8.000000
7.432645,-8.000001
7.492173,-8.006402
7.492180,-8.006404
7.626887,-8.056646
7.626894,-8.056650
7.741988,-8.142810
7.741991,-8.142813
7.828151,-8.257907
7.828155,-8.257914
7.878397,-8.392621
7.878399,-8.392628
7.884800,-8.452156
7.884801,-8.452173
7.884801,-9.250000
6.784801,-9.250000
6.784801,-8.000000
6.284801,-8.000000
6.284801,-9.250000
5.184801,-9.250000
5.184801,-8.452156
0.500500,-8.452156
0.500500,-10.547828
5.184801,-10.547828
5.184801,-9.750000
6.284801,-9.750000
6.784801,-9.750000
7.884801,-9.750000
7.884801,-10.547836
7.884713,-10.548655
8.141500,-10.548655
8.141500,-8.451346
8.148011,-8.390798
8.148011,-8.390796
8.197575,-8.257914
8.199111,-8.253796
8.286739,-8.136739
8.403796,-8.049111
8.518297,-8.006404
8.535463,-8.000001
8.540799,-7.998011
8.568050,-7.995082
8.601345,-7.991501
8.601362,-7.991500
10.398638,-7.991500
10.398654,-7.991501
10.425692,-7.994409
10.459201,-7.998011
10.464537,-8.000001
10.481703,-8.006404
10.596204,-8.049111
10.713261,-8.136739
10.800889,-8.253796
10.851989,-8.390799
10.855591,-8.424308
10.858499,-8.451346
10.858500,-8.451363
10.858500,-9.663746
10.878185,-9.730785
10.894819,-9.751427
12.808218,-11.664826
12.869541,-11.698311
12.895899,-11.701145
13.413435,-11.701145
13.413451,-11.701146
13.440489,-11.704054
13.473998,-11.707656
13.611001,-11.758756
13.728058,-11.846384
13.815686,-11.963441
13.866786,-12.100444
13.870388,-12.133953
13.873296,-12.160991
13.873297,-12.161008
13.873297,-13.258283
13.873296,-13.258300
13.869954,-13.289375
13.866786,-13.318846
13.815686,-13.455849
13.728058,-13.572906
13.611001,-13.660534
13.474000,-13.711634
13.413451,-13.718145
13.413435,-13.718145
11.316159,-13.718145
11.316142,-13.718145
11.255594,-13.711634
11.255592,-13.711634
11.118592,-13.660534
11.001536,-13.572906
10.913908,-13.455850
10.862808,-13.318850
10.862808,-13.318848
10.856297,-13.258300
10.856297,-12.160991
10.862808,-12.100443
10.864593,-12.092887
10.861582,-12.092176
10.865545,-12.036777
10.832061,-11.975454
10.832060,-11.975453
9.901427,-11.044819
9.840104,-11.011334
9.813746,-11.008500
8.601345,-11.008500
8.540797,-11.001989
8.540795,-11.001989
8.403795,-10.950889
8.286739,-10.863261
8.199111,-10.746205
8.148011,-10.609205
8.148011,-10.609203
8.141500,-10.548655
7.884713,-10.548655
7.878399,-10.607373
7.878397,-10.607380
7.828155,-10.742087
7.828151,-10.742094
7.741991,-10.857188
7.741988,-10.857191
7.626894,-10.943351
7.626887,-10.943355
7.492180,-10.993597
7.492173,-10.993599
7.432645,-11.000000
6.784801,-11.000000
6.784801,-9.750000
6.284801,-9.750000
6.284801,-11.000000
5.636956,-11.000000
5.577428,-10.993599
5.577421,-10.993597
5.442714,-10.943355
5.442707,-10.943351
5.327613,-10.857191
5.327610,-10.857188
5.241450,-10.742094
5.241446,-10.742087
5.191204,-10.607380
5.191202,-10.607373
5.184802,-10.547847
5.184801,-10.547828
0.500500,-10.547828
0.500500,-12.322156
5.250000,-12.322156
5.256401,-12.262628
5.256403,-12.262621
5.306645,-12.127914
5.306649,-12.127907
5.392809,-12.012813
5.392812,-12.012810
5.507906,-11.926650
5.507913,-11.926646
5.642620,-11.876404
5.642627,-11.876402
5.702155,-11.870001
5.702172,-11.870000
6.750000,-11.870000
7.250000,-11.870000
8.297828,-11.870000
8.297844,-11.870001
8.357372,-11.876402
8.357379,-11.876404
8.492086,-11.926646
8.492093,-11.926650
8.607187,-12.012810
8.607190,-12.012813
8.693350,-12.127907
8.693354,-12.127914
8.743596,-12.262621
8.743598,-12.262628
8.749999,-12.322156
8.750000,-12.322173
8.750000,-12.970000
7.250000,-12.970000
7.250000,-11.870000
6.750000,-11.870000
6.750000,-12.970000
5.250000,-12.970000
5.250000,-12.322156
0.500500,-12.322156
0.500500,-31.898655
5.241500,-31.898655
5.241500,-30.101346
5.248011,-30.040798
5.248011,-30.040796
5.299111,-29.903796
5.378893,-29.797220
5.403310,-29.731755
5.388458,-29.663482
5.378893,-29.648598
5.306647,-29.552090
5.306645,-29.552087
5.256403,-29.417380
5.256401,-29.417373
5.250000,-29.357845
5.250000,-28.710000
8.750000,-28.710000
8.750000,-29.357828
8.749999,-29.357845
8.743598,-29.417373
8.743596,-29.417380
8.693354,-29.552087
8.693353,-29.552089
8.621106,-29.648598
8.596689,-29.714062
8.611540,-29.782335
8.621099,-29.797211
8.700889,-29.903796
8.751989,-30.040799
8.756285,-30.080755
8.783023,-30.145306
8.840415,-30.185155
8.879574,-30.191500
16.038746,-30.191500
16.105785,-30.171815
16.126427,-30.155181
18.843011,-27.438598
18.843032,-27.438575
21.665181,-24.616427
21.698666,-24.555104
21.701500,-24.528746
21.701500,-8.879575
21.681815,-8.812536
21.629011,-8.766781
21.590758,-8.756286
21.550796,-8.751989
21.550795,-8.751989
21.413795,-8.700889
21.314311,-8.626415
21.248846,-8.601998
21.180573,-8.616850
21.165689,-8.626415
21.146478,-8.640796
21.066204,-8.700889
21.064933,-8.701363
20.929203,-8.751989
20.889242,-8.756286
20.824692,-8.783025
20.784845,-8.840419
20.778500,-8.879575
20.778500,-16.109631
20.778499,-16.109635
20.762528,-16.189927
20.747430,-16.265831
20.729578,-16.308927
20.716956,-16.339401
20.716956,-16.339402
20.686487,-16.412961
20.686486,-16.412962
20.686484,-16.412968
20.686480,-16.412974
20.598003,-16.545390
18.725747,-18.417646
18.725743,-18.417649
18.593329,-18.506126
18.593325,-18.506128
18.593323,-18.506129
18.519754,-18.536602
18.519752,-18.536603
18.519751,-18.536604
18.446186,-18.567075
18.446178,-18.567077
18.289989,-18.598145
18.289985,-18.598145
13.831121,-18.598145
13.764082,-18.617830
13.731854,-18.647835
13.728059,-18.652905
13.611001,-18.740534
13.474000,-18.791634
13.413451,-18.798145
13.413435,-18.798145
11.880899,-18.798145
11.813860,-18.817830
11.768105,-18.870634
11.758161,-18.939792
11.787186,-19.003348
11.793218,-19.009826
12.268218,-19.484826
12.329541,-19.518311
12.355899,-19.521145
14.198473,-19.521145
14.265512,-19.501460
14.297740,-19.471455
14.301534,-19.466386
14.301535,-19.466386
14.301536,-19.466384
14.418593,-19.378756
14.555596,-19.327656
14.582847,-19.324727
14.616142,-19.321146
14.616159,-19.321145
16.713435,-19.321145
16.713451,-19.321146
16.740489,-19.324054
16.773998,-19.327656
16.911001,-19.378756
17.028058,-19.466384
17.115686,-19.583441
17.166786,-19.720444
17.170388,-19.753953
17.173296,-19.780991
17.173297,-19.781008
17.173297,-20.878283
17.173296,-20.878300
17.167626,-20.931031
17.166786,-20.938846
17.115686,-21.075849
17.028058,-21.192906
16.911001,-21.280534
16.774000,-21.331634
16.713451,-21.338145
16.713435,-21.338145
14.616159,-21.338145
14.616142,-21.338145
14.555594,-21.331634
14.555592,-21.331634
14.418592,-21.280534
14.301534,-21.192905
14.297740,-21.187835
14.241807,-21.145963
14.198473,-21.138145
12.076050,-21.138145
12.009011,-21.157830
11.963256,-21.210634
11.953312,-21.279792
11.982337,-21.343348
11.988369,-21.349826
12.463370,-21.824826
12.524693,-21.858311
12.551051,-21.861145
13.413435,-21.861145
13.413451,-21.861146
13.440489,-21.864054
13.473998,-21.867656
13.611001,-21.918756
13.728058,-22.006384
13.815686,-22.123441
13.866786,-22.260444
13.870388,-22.293953
13.873296,-22.320991
13.873297,-22.321008
13.873297,-23.418283
13.873296,-23.418300
13.869954,-23.449375
13.866786,-23.478846
13.815686,-23.615849
13.728058,-23.732906
13.611001,-23.820534
13.586614,-23.829630
13.474000,-23.871634
13.413451,-23.878145
13.413435,-23.878145
11.880899,-23.878145
11.813860,-23.897830
11.768105,-23.950634
11.758161,-24.019792
11.787186,-24.083348
11.793218,-24.089826
12.268218,-24.564826
12.329541,-24.598311
12.355899,-24.601145
14.198473,-24.601145
14.265512,-24.581460
14.297740,-24.551455
14.301534,-24.546386
14.301535,-24.546386
14.301536,-24.546384
14.418593,-24.458756
14.533094,-24.416049
14.550260,-24.409646
14.555596,-24.407656
14.582847,-24.404727
14.616142,-24.401146
14.616159,-24.401145
16.713435,-24.401145
16.713451,-24.401146
16.740489,-24.404054
16.773998,-24.407656
16.779334,-24.409646
16.796500,-24.416049
16.911001,-24.458756
17.028058,-24.546384
17.115686,-24.663441
17.166786,-24.800444
17.170388,-24.833953
17.173296,-24.860991
17.173297,-24.861008
17.173297,-25.958283
17.173296,-25.958300
17.169954,-25.989375
17.166786,-26.018846
17.115686,-26.155849
17.028058,-26.272906
16.911001,-26.360534
16.774000,-26.411634
16.713451,-26.418145
16.713435,-26.418145
14.616159,-26.418145
14.616142,-26.418145
14.555594,-26.411634
14.555592,-26.411634
14.418592,-26.360534
14.301534,-26.272905
14.297740,-26.267835
14.241807,-26.225963
14.198473,-26.218145
12.076050,-26.218145
12.009011,-26.237830
11.963256,-26.290634
11.953312,-26.359792
11.982337,-26.423348
11.988369,-26.429826
12.463370,-26.904826
12.524693,-26.938311
12.551051,-26.941145
13.413435,-26.941145
13.413451,-26.941146
13.440489,-26.944054
13.473998,-26.947656
13.611001,-26.998756
13.728058,-27.086384
13.815686,-27.203441
13.866786,-27.340444
13.870388,-27.373953
13.873296,-27.400991
13.873297,-27.401008
13.873297,-28.498283
13.873296,-28.498300
13.869954,-28.529375
13.866786,-28.558846
13.815686,-28.695849
13.728058,-28.812906
13.611001,-28.900534
13.474000,-28.951634
13.413451,-28.958145
13.413435,-28.958145
11.316159,-28.958145
11.316142,-28.958145
11.255594,-28.951634
11.255592,-28.951634
11.118592,-28.900534
11.001536,-28.812906
10.913908,-28.695850
10.862808,-28.558850
10.862808,-28.558848
10.856297,-28.498300
10.856297,-27.635899
10.836612,-27.568860
10.819978,-27.548218
8.970181,-25.698421
8.908858,-25.664936
8.839166,-25.669920
8.783233,-25.711792
8.758816,-25.777256
8.758500,-25.786102
8.758500,-26.818638
8.758499,-26.818655
8.755157,-26.849730
8.751989,-26.879201
8.742431,-26.904826
8.710369,-26.990787
8.700889,-27.016204
8.621105,-27.122782
8.596689,-27.188246
8.611541,-27.256519
8.621107,-27.271404
8.693352,-27.367911
8.693354,-27.367914
8.743596,-27.502621
8.743598,-27.502628
8.749999,-27.562156
8.750000,-27.562173
8.750000,-28.210000
5.250000,-28.210000
5.250000,-27.562156
5.256401,-27.502628
5.256403,-27.502621
5.306645,-27.367914
5.306646,-27.367912
5.378893,-27.271403
5.403310,-27.205939
5.388459,-27.137666
5.378893,-27.122782
5.299112,-27.016207
5.299111,-27.016207
5.248011,-26.879205
5.248011,-26.879203
5.241500,-26.818655
5.241500,-25.021346
5.248011,-24.960798
5.248011,-24.960796
5.299111,-24.823796
5.373585,-24.724311
5.398002,-24.658846
5.383150,-24.590573
5.373585,-24.575689
5.299111,-24.476205
5.248011,-24.339205
5.248011,-24.339203
5.241500,-24.278655
5.241500,-22.481346
5.248011,-22.420798
5.248011,-22.420796
5.299111,-22.283796
5.373585,-22.184311
5.398002,-22.118846
5.383150,-22.050573
5.373585,-22.035689
5.299111,-21.936205
5.248011,-21.799205
5.248011,-21.799203
5.241500,-21.738655
5.241500,-19.941346
5.248011,-19.880798
5.248011,-19.880796
5.299111,-19.743796
5.373585,-19.644311
5.398002,-19.578846
5.383150,-19.510573
5.373585,-19.495689
5.299111,-19.396205
5.248011,-19.259205
5.248011,-19.259203
5.241500,-19.198655
5.241500,-17.401346
5.248011,-17.340798
5.248011,-17.340796
5.299111,-17.203796
5.373585,-17.104311
5.398002,-17.038846
5.383150,-16.970573
5.373585,-16.955689
5.299111,-16.856205
5.248011,-16.719205
5.248011,-16.719203
5.241500,-16.658655
5.241500,-14.861346
5.248011,-14.800798
5.248011,-14.800796
5.299111,-14.663796
5.378893,-14.557220
5.403310,-14.491755
5.388458,-14.423482
5.378893,-14.408598
5.306647,-14.312090
5.306645,-14.312087
5.256403,-14.177380
5.256401,-14.177373
5.250000,-14.117845
5.250000,-13.470000
8.750000,-13.470000
8.750000,-14.117828
8.749999,-14.117845
8.743598,-14.177373
8.743596,-14.177380
8.693354,-14.312087
8.693353,-14.312089
8.621106,-14.408598
8.596689,-14.474062
8.611540,-14.542335
8.621099,-14.557211
8.700889,-14.663796
8.751989,-14.800799
8.755591,-14.834308
8.758499,-14.861346
8.758500,-14.861363
8.758500,-15.923746
8.778185,-15.990785
8.794819,-16.011427
10.644616,-17.861224
10.705939,-17.894709
10.775631,-17.889725
10.831564,-17.847853
10.855981,-17.782389
10.856297,-17.773543
10.856297,-17.240991
10.862808,-17.180443
10.862808,-17.180441
10.913908,-17.043442
10.913908,-17.043441
11.001536,-16.926384
11.118593,-16.838756
11.255596,-16.787656
11.282847,-16.784727
11.316142,-16.781146
11.316159,-16.781145
13.413435,-16.781145
13.413451,-16.781146
13.440489,-16.784054
13.473998,-16.787656
13.611001,-16.838756
13.728058,-16.926384
13.731854,-16.931456
13.787787,-16.973327
13.831121,-16.981145
17.824101,-16.981145
17.891140,-16.961460
17.911782,-16.944826
19.125181,-15.731427
19.158666,-15.670104
19.161500,-15.643746
19.161500,-8.879575
19.141815,-8.812536
19.089011,-8.766781
19.050758,-8.756286
19.010796,-8.751989
19.010795,-8.751989
18.873795,-8.700889
18.774311,-8.626415
18.708846,-8.601998
18.640573,-8.616850
18.625689,-8.626415
18.606478,-8.640796
18.526204,-8.700889
18.524933,-8.701363
18.389203,-8.751989
18.349242,-8.756286
18.284692,-8.783025
18.244845,-8.840419
18.238500,-8.879575
18.238500,-11.374631
18.238499,-11.374635
18.211790,-11.508910
18.207430,-11.530831
18.146483,-11.677968
18.146483,-11.677969
18.107177,-11.736794
18.058003,-11.810389
18.057998,-11.810395
17.941070,-11.927323
17.941047,-11.927344
16.994819,-12.873573
16.961334,-12.934896
16.958500,-12.961254
16.958500,-14.272244
16.978185,-14.339283
17.008192,-14.371513
17.028055,-14.386382
17.028054,-14.386382
17.028058,-14.386384
17.115686,-14.503441
17.131836,-14.546739
17.166785,-14.640441
17.166785,-14.640442
17.166786,-14.640444
17.170388,-14.673953
17.173296,-14.700991
17.173297,-14.701008
17.173297,-15.798283
17.173296,-15.798300
17.167626,-15.851031
17.166786,-15.858846
17.115686,-15.995849
17.028058,-16.112906
16.911001,-16.200534
16.774000,-16.251634
16.713451,-16.258145
16.713435,-16.258145
14.616159,-16.258145
14.616142,-16.258145
14.555594,-16.251634
14.555592,-16.251634
14.418592,-16.200534
14.301536,-16.112906
14.213908,-15.995850
14.162808,-15.858850
14.162808,-15.858848
14.156297,-15.798300
14.156297,-14.700991
14.162808,-14.640443
14.162808,-14.640441
14.202823,-14.533160
14.213908,-14.503441
14.301536,-14.386384
14.418593,-14.298756
14.555596,-14.247656
14.582847,-14.244727
14.616142,-14.241146
14.616159,-14.241145
15.217500,-14.241145
15.284539,-14.221460
15.330294,-14.168656
15.341500,-14.117145
15.341500,-12.495366
15.372568,-12.339176
15.372571,-12.339165
15.385272,-12.308506
15.385273,-12.308500
15.385274,-12.308500
15.433516,-12.192032
15.433517,-12.192029
15.521996,-12.059612
15.521999,-12.059608
16.585181,-10.996428
16.618666,-10.935105
16.621500,-10.908747
16.621500,-8.879575
16.601815,-8.812536
16.549011,-8.766781
16.510758,-8.756286
16.470796,-8.751989
16.470795,-8.751989
16.333795,-8.700889
16.234311,-8.626415
16.168846,-8.601998
16.100573,-8.616850
16.085689,-8.626415
16.066478,-8.640796
15.986204,-8.700889
15.984933,-8.701363
15.849203,-8.751989
15.788654,-8.758500
15.788638,-8.758500
13.991362,-8.758500
13.991345,-8.758500
13.930797,-8.751989
13.930795,-8.751989
13.793795,-8.700889
13.676739,-8.613261
13.589111,-8.496205
13.538011,-8.359205
13.538011,-8.359203
13.531500,-8.298655
13.531500,-5.701346
13.538011,-5.640798
13.538011,-5.640796
13.587575,-5.507914
13.589111,-5.503796
13.676739,-5.386739
13.793796,-5.299111
13.902015,-5.258747
13.928911,-5.248715
13.930799,-5.248011
13.958646,-5.245018
13.991336,-5.241502
13.991350,-5.241502
13.991362,-5.241500
13.991373,-5.241500
13.994070,-5.241356
14.013600,-5.234472
14.034204,-5.232385
14.045886,-5.223090
14.059965,-5.218126
14.072672,-5.201775
14.088877,-5.188881
14.096470,-5.171155
14.102840,-5.162959
14.104871,-5.157419
14.107489,-5.149712
14.112570,-5.124169
14.131019,-5.079630
14.132567,-5.075892
14.132568,-5.075890
14.173517,-4.977029
14.261996,-4.844612
14.261999,-4.844608
16.234610,-2.871997
16.367026,-2.783520
16.367032,-2.783516
16.395761,-2.771617
16.440602,-2.753043
16.514169,-2.722570
16.670365,-2.691501
16.670369,-2.691500
16.670370,-2.691500
33.079631,-2.691500
33.079632,-2.691501
33.235831,-2.722570
33.309399,-2.753044
33.382968,-2.783516
33.515389,-2.871997
34.848573,-4.205181
34.909896,-4.238666
34.936254,-4.241500
35.693803,-4.241500
35.741256,-4.232061
35.764169,-4.222570
35.920365,-4.191501
35.920369,-4.191500
35.920370,-4.191500
43.079631,-4.191500
43.079632,-4.191501
43.235831,-4.222570
43.259376,-4.232323
43.295405,-4.240492
43.295335,-4.241144
43.327428,-4.244596
43.359201,-4.248011
43.496204,-4.299111
43.613261,-4.386739
43.700889,-4.503796
43.751989,-4.640799
43.757440,-4.691500
43.758856,-4.704665
43.759508,-4.704595
43.767677,-4.740624
43.777430,-4.764169
43.808500,-4.920370
43.808500,-5.079630
43.777430,-5.235831
43.767938,-5.258747
43.758500,-5.306198
43.758500,-6.298638
43.758499,-6.298655
43.754375,-6.337008
43.751989,-6.359201
43.749654,-6.365461
43.724650,-6.432500
43.700889,-6.496204
43.613261,-6.613261
43.496204,-6.700889
43.359203,-6.751989
43.298654,-6.758500
43.298638,-6.758500
40.701362,-6.758500
40.701345,-6.758500
40.640797,-6.751989
40.640795,-6.751989
40.503795,-6.700889
40.386739,-6.613261
40.299111,-6.496205
40.248011,-6.359205
40.248011,-6.359203
40.241500,-6.298655
40.241500,-5.932500
40.238949,-5.923815
40.240238,-5.914853
40.229259,-5.890813
40.221815,-5.865461
40.214974,-5.859534
40.211213,-5.851297
40.188978,-5.837008
40.169011,-5.819706
40.158496,-5.817419
40.152435,-5.813523
40.117500,-5.808500
39.932500,-5.808500
39.865461,-5.828185
39.819706,-5.880989
39.808500,-5.932500
39.808500,-10.298655
40.241500,-10.298655
40.241500,-8.701346
40.248011,-8.640798
40.248011,-8.640796
40.286552,-8.537467
40.299111,-8.503796
40.386739,-8.386739
40.503796,-8.299111
40.640799,-8.248011
40.668050,-8.245082
40.701345,-8.241501
40.701362,-8.241500
43.298638,-8.241500
43.298654,-8.241501
43.325692,-8.244409
43.359201,-8.248011
43.496204,-8.299111
43.613261,-8.386739
43.700889,-8.503796
43.751989,-8.640799
43.757639,-8.693353
43.758499,-8.701346
43.758500,-8.701363
43.758500,-10.298638
43.758499,-10.298655
43.755157,-10.329730
43.751989,-10.359201
43.700889,-10.496204
43.613261,-10.613261
43.496204,-10.700889
43.359203,-10.751989
43.298654,-10.758500
43.298638,-10.758500
40.701362,-10.758500
40.701345,-10.758500
40.640797,-10.751989
40.640795,-10.751989
40.503795,-10.700889
40.386739,-10.613261
40.299111,-10.496205
40.248011,-10.359205
40.248011,-10.359203
40.241500,-10.298655
39.808500,-10.298655
39.808500,-11.527400
39.828185,-11.594439
39.880989,-11.640194
39.945756,-11.650689
39.952155,-11.650001
39.952172,-11.650000
40.750000,-11.650000
41.250000,-11.650000
42.047828,-11.650000
42.047844,-11.650001
42.107372,-11.656402
42.107379,-11.656404
42.242086,-11.706646
42.242093,-11.706650
42.357187,-11.792810
42.357190,-11.792813
42.443350,-11.907907
42.443354,-11.907914
42.493596,-12.042621
42.493598,-12.042628
42.499999,-12.102156
42.500000,-12.102173
42.500000,-12.750000
41.250000,-12.750000
41.250000,-11.650000
40.750000,-11.650000
40.750000,-13.250000
41.250000,-13.250000
42.500000,-13.250000
42.500000,-13.897828
42.499999,-13.897845
42.493598,-13.957373
42.493596,-13.957380
42.443354,-14.092087
42.443350,-14.092094
42.357190,-14.207188
42.357187,-14.207191
42.242093,-14.293351
42.242086,-14.293355
42.107379,-14.343597
42.107372,-14.343599
42.047844,-14.350000
41.250000,-14.350000
41.250000,-13.250000
40.750000,-13.250000
40.750000,-14.350000
39.952155,-14.350000
39.945756,-14.349311
39.876997,-14.361716
39.825859,-14.409325
39.808500,-14.472600
39.808500,-15.808020
39.828185,-15.875059
39.880989,-15.920814
39.932500,-15.932020
41.246826,-15.932020
41.746826,-15.932020
43.119654,-15.932020
43.119670,-15.932021
43.179198,-15.938422
43.179205,-15.938424
43.313912,-15.988666
43.313919,-15.988670
43.429013,-16.074830
43.429016,-16.074833
43.515176,-16.189927
43.515180,-16.189934
43.565422,-16.324641
43.565424,-16.324648
43.571825,-16.384176
43.571826,-16.384193
43.571826,-16.682020
41.746826,-16.682020
41.746826,-15.932020
41.246826,-15.932020
41.246826,-17.182020
41.746826,-17.182020
43.571826,-17.182020
43.571826,-17.479848
43.571825,-17.479865
43.565424,-17.539393
43.565422,-17.539400
43.515180,-17.674107
43.515176,-17.674114
43.429016,-17.789208
43.429013,-17.789211
43.313919,-17.875371
43.313912,-17.875375
43.179205,-17.925617
43.179198,-17.925619
43.119670,-17.932020
41.746826,-17.932020
41.746826,-17.182020
41.246826,-17.182020
41.246826,-17.932020
39.932500,-17.932020
39.865461,-17.951705
39.819706,-18.004509
39.808500,-18.056020
39.808500,-18.348020
39.828185,-18.415059
39.880989,-18.460814
39.932500,-18.472020
41.246826,-18.472020
41.746826,-18.472020
43.119654,-18.472020
43.119670,-18.472021
43.179198,-18.478422
43.179205,-18.478424
43.313912,-18.528666
43.313919,-18.528670
43.429013,-18.614830
43.429016,-18.614833
43.515176,-18.729927
43.515180,-18.729934
43.565422,-18.864641
43.565424,-18.864648
43.571825,-18.924176
43.571826,-18.924193
43.571826,-19.222020
41.746826,-19.222020
41.746826,-18.472020
41.246826,-18.472020
41.246826,-19.722020
41.746826,-19.722020
43.571826,-19.722020
43.571826,-20.019848
43.571825,-20.019865
43.565424,-20.079393
43.565422,-20.079400
43.515180,-20.214107
43.515176,-20.214114
43.429016,-20.329208
43.429013,-20.329211
43.313919,-20.415371
43.313912,-20.415375
43.179205,-20.465617
43.179198,-20.465619
43.119670,-20.472020
41.746826,-20.472020
41.746826,-19.722020
41.246826,-19.722020
41.246826,-20.472020
39.932500,-20.472020
39.865461,-20.491705
39.819706,-20.544509
39.808500,-20.596020
39.808500,-20.888020
39.828185,-20.955059
39.880989,-21.000814
39.932500,-21.012020
41.246826,-21.012020
41.746826,-21.012020
43.119654,-21.012020
43.119670,-21.012021
43.179198,-21.018422
43.179205,-21.018424
43.313912,-21.068666
43.313919,-21.068670
43.429013,-21.154830
43.429016,-21.154833
43.515176,-21.269927
43.515180,-21.269934
43.565422,-21.404641
43.565424,-21.404648
43.571825,-21.464176
43.571826,-21.464193
43.571826,-21.762020
41.746826,-21.762020
41.746826,-21.012020
41.246826,-21.012020
41.246826,-22.262020
41.746826,-22.262020
43.571826,-22.262020
43.571826,-22.559848
43.571825,-22.559865
43.565424,-22.619393
43.565422,-22.619400
43.515180,-22.754107
43.515176,-22.754114
43.429016,-22.869208
43.429013,-22.869211
43.313919,-22.955371
43.313912,-22.955375
43.179205,-23.005617
43.179198,-23.005619
43.119670,-23.012020
41.746826,-23.012020
41.746826,-22.262020
41.246826,-22.262020
41.246826,-23.012020
39.932500,-23.012020
39.865461,-23.031705
39.819706,-23.084509
39.808500,-23.136020
39.808500,-23.579631
39.808499,-23.579635
39.801295,-23.615850
39.777430,-23.735831
39.718807,-23.877357
39.717163,-23.881952
39.628006,-24.015385
39.628000,-24.015393
38.015392,-25.628001
38.015388,-25.628004
37.882974,-25.716481
37.882970,-25.716483
37.882963,-25.716486
37.809399,-25.746957
37.809397,-25.746958
37.809396,-25.746959
37.735831,-25.777430
37.735823,-25.777432
37.579634,-25.808500
37.579630,-25.808500
32.420370,-25.808500
32.420365,-25.808500
32.264176,-25.777433
32.264176,-25.777432
32.264173,-25.777431
32.264169,-25.777430
32.190600,-25.746957
32.190598,-25.746957
32.117034,-25.716486
32.117025,-25.716481
31.984611,-25.628004
31.984607,-25.628001
30.272486,-23.915879
30.270803,-23.917562
30.221765,-23.884150
30.183644,-23.878145
29.856142,-23.878145
29.795594,-23.871634
29.795592,-23.871634
29.658592,-23.820534
29.541536,-23.732906
29.453908,-23.615850
29.402808,-23.478850
29.402808,-23.478848
29.396297,-23.418300
29.396297,-22.320991
29.402808,-22.260443
29.402808,-22.260441
29.451001,-22.131235
29.453908,-22.123441
29.541536,-22.006384
29.658593,-21.918756
29.795596,-21.867656
29.822847,-21.864727
29.856142,-21.861146
29.856159,-21.861145
31.953435,-21.861145
31.953451,-21.861146
31.980489,-21.864054
32.013998,-21.867656
32.151001,-21.918756
32.268058,-22.006384
32.355686,-22.123441
32.406786,-22.260444
32.410388,-22.293953
32.413296,-22.320991
32.413297,-22.321008
32.413297,-23.418283
32.413296,-23.418300
32.406786,-23.478847
32.357334,-23.611430
32.352350,-23.681121
32.385831,-23.742441
32.798573,-24.155181
32.859896,-24.188666
32.886254,-24.191500
37.113746,-24.191500
37.180785,-24.171815
37.201427,-24.155181
38.124407,-23.232201
38.157892,-23.170878
38.152908,-23.101186
38.111036,-23.045253
38.045572,-23.020836
38.036726,-23.020520
34.823171,-23.020520
34.762623,-23.014009
34.762621,-23.014009
34.625621,-22.962909
34.508565,-22.875281
34.420937,-22.758225
34.369837,-22.621225
34.369837,-22.621223
34.363326,-22.560675
34.363326,-22.198274
34.343641,-22.131235
34.327007,-22.110593
33.390878,-21.174464
33.329555,-21.140979
33.303197,-21.138145
29.071121,-21.138145
29.004082,-21.157830
28.971854,-21.187835
28.968059,-21.192905
28.851001,-21.280534
28.714000,-21.331634
28.653451,-21.338145
28.653435,-21.338145
26.556159,-21.338145
26.556142,-21.338145
26.495594,-21.331634
26.495592,-21.331634
26.358592,-21.280534
26.241536,-21.192906
26.153908,-21.075850
26.102808,-20.938850
26.102808,-20.938848
26.096297,-20.878300
26.096297,-19.780991
26.102808,-19.720443
26.102808,-19.720441
26.153908,-19.583441
26.241536,-19.466384
26.358593,-19.378756
26.495596,-19.327656
26.522847,-19.324727
26.556142,-19.321146
26.556159,-19.321145
28.653435,-19.321145
28.653451,-19.321146
28.680489,-19.324054
28.713998,-19.327656
28.851001,-19.378756
28.968058,-19.466384
28.971854,-19.471456
29.027787,-19.513327
29.071121,-19.521145
33.578390,-19.521145
33.645429,-19.501460
33.691184,-19.448656
33.701128,-19.379498
33.672103,-19.315942
33.666071,-19.309464
33.201427,-18.844819
33.140104,-18.811334
33.113746,-18.808500
31.035521,-18.808500
31.011128,-18.803648
30.995442,-18.800528
30.971252,-18.798145
29.856142,-18.798145
29.795594,-18.791634
29.795592,-18.791634
29.658592,-18.740534
29.541536,-18.652906
29.453908,-18.535850
29.402808,-18.398850
29.402808,-18.398848
29.396297,-18.338300
29.396297,-17.240991
29.402808,-17.180443
29.402808,-17.180441
29.453908,-17.043442
29.453908,-17.043441
29.541536,-16.926384
29.658593,-16.838756
29.795596,-16.787656
29.822847,-16.784727
29.856142,-16.781146
29.856159,-16.781145
31.953435,-16.781145
31.953451,-16.781146
31.980489,-16.784054
32.013998,-16.787656
32.151001,-16.838756
32.268058,-16.926384
32.355686,-17.043441
32.367032,-17.073861
32.380823,-17.110834
32.422694,-17.166768
32.488159,-17.191184
32.497004,-17.191500
33.579631,-17.191500
33.579632,-17.191501
33.735831,-17.222570
33.809399,-17.253044
33.882968,-17.283516
34.015389,-17.371997
34.151646,-17.508255
34.212967,-17.541738
34.282659,-17.536754
34.338593,-17.494883
34.363010,-17.429418
34.363326,-17.420572
34.363326,-16.383366
34.369837,-16.322818
34.369837,-16.322816
34.406143,-16.225480
34.411128,-16.155788
34.377644,-16.094465
34.316321,-16.060979
34.289962,-16.058145
29.071121,-16.058145
29.004082,-16.077830
28.971854,-16.107835
28.968059,-16.112905
28.910774,-16.155788
28.851001,-16.200534
28.714000,-16.251634
28.653451,-16.258145
28.653435,-16.258145
26.556159,-16.258145
26.556142,-16.258145
26.495594,-16.251634
26.495592,-16.251634
26.358592,-16.200534
26.241536,-16.112906
26.153908,-15.995850
26.102808,-15.858850
26.102808,-15.858848
26.096297,-15.798300
26.096297,-14.700991
26.102808,-14.640443
26.102808,-14.640441
26.142823,-14.533160
26.153908,-14.503441
26.241536,-14.386384
26.358593,-14.298756
26.495596,-14.247656
26.522847,-14.244727
26.556142,-14.241146
26.556159,-14.241145
28.653435,-14.241145
28.653451,-14.241146
28.680489,-14.244054
28.713998,-14.247656
28.851001,-14.298756
28.968058,-14.386384
28.971854,-14.391456
29.027787,-14.433327
29.071121,-14.441145
34.844082,-14.441145
34.844083,-14.441146
35.000282,-14.472215
35.075667,-14.503441
35.147419,-14.533161
35.279840,-14.621642
36.545399,-15.887201
36.606722,-15.920686
36.633080,-15.923520
38.067500,-15.923520
38.134539,-15.903835
38.180294,-15.851031
38.191500,-15.799520
38.191500,-14.481188
38.171815,-14.414149
38.119011,-14.368394
38.054256,-14.357897
38.048647,-14.358500
38.048638,-14.358500
35.951362,-14.358500
35.951345,-14.358500
35.890797,-14.351989
35.890795,-14.351989
35.753795,-14.300889
35.636739,-14.213261
35.549111,-14.096205
35.498011,-13.959205
35.498011,-13.959203
35.491500,-13.898655
35.491500,-12.101346
35.498011,-12.040798
35.498011,-12.040796
35.526864,-11.963441
35.549111,-11.903796
35.636739,-11.786739
35.753796,-11.699111
35.774202,-11.691500
35.792918,-11.684519
35.848851,-11.642647
35.873267,-11.577183
35.858415,-11.508910
35.837264,-11.480657
35.151427,-10.794819
35.124499,-10.780116
35.098681,-10.763523
35.092480,-10.762632
35.090104,-10.761334
35.063746,-10.758500
34.936253,-10.758500
34.869214,-10.778185
34.848572,-10.794819
32.447625,-13.195767
32.414140,-13.257090
32.412017,-13.270193
32.406786,-13.318847
32.406785,-13.318850
32.384319,-13.379081
32.355686,-13.455849
32.268058,-13.572906
32.151001,-13.660534
32.014000,-13.711634
31.953451,-13.718145
31.953435,-13.718145
29.856159,-13.718145
29.856142,-13.718145
29.795594,-13.711634
29.795592,-13.711634
29.658592,-13.660534
29.541536,-13.572906
29.453908,-13.455850
29.402808,-13.318850
29.402808,-13.318848
29.396297,-13.258300
29.396297,-12.160991
29.402808,-12.100443
29.402808,-12.100441
29.435493,-12.012813
29.453908,-11.963441
29.541536,-11.846384
29.658593,-11.758756
29.795596,-11.707656
29.822847,-11.704727
29.856142,-11.701146
29.856159,-11.701145
30.974111,-11.701145
30.998303,-11.698762
31.034810,-11.691500
31.034812,-11.691500
31.194073,-11.691500
31.230581,-11.698762
31.254773,-11.701145
31.604101,-11.701145
31.671140,-11.681460
31.691782,-11.664826
33.205181,-10.151428
33.238666,-10.090105
33.241500,-10.063747
33.241500,-8.701346
33.248011,-8.640798
33.248011,-8.640796
33.286552,-8.537467
33.299111,-8.503796
33.386739,-8.386739
33.503796,-8.299111
33.640799,-8.248011
33.668050,-8.245082
33.701345,-8.241501
33.701362,-8.241500
36.298638,-8.241500
36.298654,-8.241501
36.325692,-8.244409
36.359201,-8.248011
36.496204,-8.299111
36.613261,-8.386739
36.700889,-8.503796
36.751989,-8.640799
36.757639,-8.693353
36.758499,-8.701346
36.758500,-8.701363
36.758500,-10.063746
36.778185,-10.130785
36.794819,-10.151427
37.628003,-10.984611
37.645859,-11.011334
37.716484,-11.117032
37.746956,-11.190601
37.777430,-11.264169
37.808500,-11.420370
37.808500,-11.517500
37.810879,-11.525604
37.809596,-11.533953
37.820577,-11.558630
37.828185,-11.584539
37.834567,-11.590070
37.838002,-11.597787
37.860580,-11.612610
37.880989,-11.630294
37.890867,-11.632494
37.896410,-11.636132
37.928947,-11.640972
37.931294,-11.641494
37.931911,-11.641500
38.048638,-11.641500
38.060248,-11.642749
38.066294,-11.642807
38.094328,-11.634871
38.123002,-11.629698
38.127547,-11.625467
38.133522,-11.623775
38.152815,-11.601942
38.174140,-11.582089
38.175842,-11.575885
38.179788,-11.571419
38.183255,-11.548866
38.191500,-11.518813
38.191500,-5.932500
38.171815,-5.865461
38.119011,-5.819706
38.067500,-5.808500
36.882500,-5.808500
36.815461,-5.828185
36.769706,-5.880989
36.758500,-5.932500
36.758500,-6.298638
36.758499,-6.298655
36.754375,-6.337008
36.751989,-6.359201
36.749654,-6.365461
36.724650,-6.432500
36.700889,-6.496204
36.613261,-6.613261
36.496204,-6.700889
36.359203,-6.751989
36.298654,-6.758500
36.298638,-6.758500
33.701362,-6.758500
33.701345,-6.758500
33.640797,-6.751989
33.640795,-6.751989
33.503795,-6.700889
33.386739,-6.613261
33.299111,-6.496205
33.248011,-6.359205
33.248011,-6.359203
33.241500,-6.298655
33.241500,-4.936254
33.221815,-4.869215
33.205181,-4.848573
32.701427,-4.344819
32.640104,-4.311334
32.613746,-4.308500
17.136254,-4.308500
17.069215,-4.328185
17.048573,-4.344819
16.353471,-5.039921
16.319986,-5.101244
16.324970,-5.170936
16.366842,-5.226869
16.432306,-5.251286
16.463084,-5.248809
16.463088,-5.248840
16.464252,-5.248715
16.469667,-5.248279
16.470792,-5.248014
16.470799,-5.248011
16.491504,-5.245786
16.531345,-5.241501
16.531362,-5.241500
18.328638,-5.241500
18.328654,-5.241501
18.355692,-5.244409
18.389201,-5.248011
18.391089,-5.248715
18.479073,-5.281532
18.526204,-5.299111
18.526204,-5.299112
18.526206,-5.299112
18.526207,-5.299113
18.625689,-5.373585
18.691153,-5.398003
18.759426,-5.383152
18.774311,-5.373585
18.873792,-5.299113
18.873793,-5.299112
19.008912,-5.248715
19.010799,-5.248011
19.038050,-5.245082
19.071345,-5.241501
19.071362,-5.241500
20.868638,-5.241500
20.868654,-5.241501
20.895692,-5.244409
20.929201,-5.248011
20.931089,-5.248715
21.019073,-5.281532
21.066204,-5.299111
21.066204,-5.299112
21.066206,-5.299112
21.066207,-5.299113
21.165689,-5.373585
21.231153,-5.398003
21.299426,-5.383152
21.314311,-5.373585
21.413792,-5.299113
21.413793,-5.299112
21.548912,-5.248715
21.550799,-5.248011
21.578050,-5.245082
21.611345,-5.241501
21.611362,-5.241500
23.408638,-5.241500
23.408654,-5.241501
23.435692,-5.244409
23.469201,-5.248011
23.471089,-5.248715
23.497985,-5.258747
23.606204,-5.299111
23.712782,-5.378895
23.778244,-5.403311
23.846517,-5.388460
23.861402,-5.378894
23.957911,-5.306647
23.957913,-5.306646
24.092620,-5.256404
24.092627,-5.256402
24.152155,-5.250001
24.152172,-5.250000
24.800000,-5.250000
25.300000,-5.250000
25.947828,-5.250000
25.947844,-5.250001
26.007372,-5.256402
26.007379,-5.256404
26.142086,-5.306646
26.142093,-5.306650
26.257187,-5.392810
26.257190,-5.392813
26.343350,-5.507907
26.343354,-5.507914
26.393596,-5.642621
26.393598,-5.642628
26.399999,-5.702156
26.400000,-5.702173
26.400000,-6.750000
25.300000,-6.750000
25.300000,-5.250000
24.800000,-5.250000
24.800000,-7.250000
25.300000,-7.250000
26.400000,-7.250000
26.400000,-8.297828
26.399999,-8.297845
26.393598,-8.357373
26.393596,-8.357380
26.343354,-8.492087
26.343350,-8.492094
26.257190,-8.607188
26.257187,-8.607191
26.142093,-8.693351
26.142086,-8.693355
26.007379,-8.743597
26.007372,-8.743599
25.947844,-8.750000
25.300000,-8.750000
25.300000,-7.250000
24.800000,-7.250000
24.800000,-8.750000
24.152155,-8.750000
24.092627,-8.743599
24.092620,-8.743597
23.957913,-8.693355
23.957910,-8.693353
23.861402,-8.621107
23.795937,-8.596690
23.727664,-8.611542
23.712780,-8.621107
23.606204,-8.700889
23.469203,-8.751989
23.429242,-8.756286
23.364692,-8.783025
23.324845,-8.840419
23.318500,-8.879575
23.318500,-24.861801
26.104797,-24.861801
26.111198,-24.802273
26.111200,-24.802266
26.161442,-24.667559
26.161446,-24.667552
26.247606,-24.552458
26.247609,-24.552455
26.362703,-24.466295
26.362710,-24.466291
26.497417,-24.416049
26.497424,-24.416047
26.556952,-24.409646
26.556969,-24.409645
27.354797,-24.409645
27.854797,-24.409645
28.652625,-24.409645
28.652641,-24.409646
28.712169,-24.416047
28.712176,-24.416049
28.846883,-24.466291
28.846890,-24.466295
28.961984,-24.552455
28.961987,-24.552458
29.048147,-24.667552
29.048151,-24.667559
29.098393,-24.802266
29.098395,-24.802273
29.104796,-24.861801
29.104797,-24.861818
29.104797,-25.159645
27.854797,-25.159645
27.854797,-24.409645
27.354797,-24.409645
27.354797,-25.159645
26.104797,-25.159645
26.104797,-24.861801
23.318500,-24.861801
23.318500,-24.994631
23.318499,-24.994635
23.287431,-25.150824
23.287430,-25.150831
23.256956,-25.224400
23.256956,-25.224401
23.256956,-25.224402
23.226487,-25.297961
23.226486,-25.297962
23.226484,-25.297968
23.226480,-25.297974
23.138003,-25.430390
22.695280,-25.873113
22.610903,-25.957490
26.104797,-25.957490
26.104797,-25.659645
27.354797,-25.659645
27.854797,-25.659645
29.104797,-25.659645
29.104797,-25.957473
29.104796,-25.957490
29.098395,-26.017018
29.098393,-26.017025
29.048151,-26.151732
29.048147,-26.151739
28.961987,-26.266833
28.961984,-26.266836
28.846890,-26.352996
28.846883,-26.353000
28.712176,-26.403242
28.712169,-26.403244
28.652641,-26.409645
27.854797,-26.409645
27.854797,-25.659645
27.354797,-25.659645
27.354797,-26.409645
26.556952,-26.409645
26.497424,-26.403244
26.497417,-26.403242
26.362710,-26.353000
26.362703,-26.352996
26.247609,-26.266836
26.247606,-26.266833
26.161446,-26.151739
26.161442,-26.151732
26.111200,-26.017025
26.111198,-26.017018
26.104797,-25.957490
22.610903,-25.957490
21.638928,-26.929464
21.605443,-26.990787
21.610427,-27.060479
21.652299,-27.116412
21.717763,-27.140829
21.726609,-27.141145
29.438473,-27.141145
29.505512,-27.121460
29.537740,-27.091455
29.541534,-27.086386
29.541535,-27.086386
29.541536,-27.086384
29.658593,-26.998756
29.795596,-26.947656
29.822847,-26.944727
29.856142,-26.941146
29.856159,-26.941145
31.953435,-26.941145
31.953451,-26.941146
31.980489,-26.944054
32.013998,-26.947656
32.151001,-26.998756
32.268058,-27.086384
32.355686,-27.203441
32.406786,-27.340444
32.410388,-27.373953
32.413296,-27.400991
32.413297,-27.401008
32.413297,-28.498283
32.413296,-28.498300
32.409954,-28.529375
32.406786,-28.558846
32.355686,-28.695849
32.268058,-28.812906
32.151001,-28.900534
32.014000,-28.951634
31.953451,-28.958145
31.953435,-28.958145
29.856159,-28.958145
29.856142,-28.958145
29.795594,-28.951634
29.795592,-28.951634
29.658592,-28.900534
29.541534,-28.812905
29.537740,-28.807835
29.481807,-28.765963
29.438473,-28.758145
19.861608,-28.758145
19.794569,-28.777830
19.773927,-28.794464
18.014555,-30.553837
17.978236,-30.590156
35.583084,-30.590156
41.083754,-25.089486
41.981988,-25.987720
36.481318,-31.488390
35.583084,-30.590156
17.978236,-30.590156
16.940392,-31.628001
16.940388,-31.628004
16.807974,-31.716481
16.807970,-31.716483
16.807968,-31.716484
16.734399,-31.746957
16.734397,-31.746958
16.734396,-31.746959
16.660831,-31.777430
16.660823,-31.777432
16.504634,-31.808500
16.504630,-31.808500
8.879574,-31.808500
8.812535,-31.828185
8.766780,-31.880989
8.756285,-31.919245
8.751989,-31.959202
8.751988,-31.959205
8.729522,-32.019436
8.700889,-32.096204
8.613261,-32.213261
8.496204,-32.300889
8.359203,-32.351989
8.298654,-32.358500
8.298638,-32.358500
5.701362,-32.358500
5.701345,-32.358500
5.640797,-32.351989
5.640795,-32.351989
5.503795,-32.300889
5.386739,-32.213261
5.299111,-32.096205
5.248011,-31.959205
5.248011,-31.959203
5.241500,-31.898655
0.500500,-31.898655
0.500500,-32.875500
0.520185,-32.942539
0.572989,-32.988294
0.624500,-32.999500
44.875500,-32.999500
Z" /> 
</g> 
</svg>
